<?xml version="1.0" encoding="UTF-8" standalone="no"?>
<!DOCTYPE svg PUBLIC "-//W3C//DTD SVG 1.1//EN"
 "http://www.w3.org/Graphics/SVG/1.1/DTD/svg11.dtd">
<!-- Generated by graphviz version 2.43.0 (0)
 -->
<!-- Title: inc/alicat_basis2.hpp Pages: 1 -->
<svg width="699pt" height="203pt"
 viewBox="0.00 0.00 699.00 203.00" xmlns="http://www.w3.org/2000/svg" xmlns:xlink="http://www.w3.org/1999/xlink">
<g id="graph0" class="graph" transform="scale(1 1) rotate(0) translate(4 199)">
<title>inc/alicat_basis2.hpp</title>
<!-- Node1 -->
<g id="Node000001" class="node">
<title>Node1</title>
<g id="a_Node000001"><a xlink:title="Hardware&#45;agnostic driver for Alicat BASIS&#45;2 mass&#45;flow meters and controllers (B&#45;Series / BC&#45;Series).">
<polygon fill="#999999" stroke="#666666" points="436.5,-195 317.5,-195 317.5,-176 436.5,-176 436.5,-195"/>
<text text-anchor="middle" x="377" y="-183" font-family="Helvetica,sans-Serif" font-size="10.00">inc/alicat_basis2.hpp</text>
</a>
</g>
</g>
<!-- Node2 -->
<g id="Node000002" class="node">
<title>Node2</title>
<g id="a_Node000002"><a xlink:href="alicat__basis2__modbus_8hpp.html" target="_top" xlink:title="Modbus&#45;RTU framing and CRC&#45;16 helpers used by the BASIS&#45;2 driver.">
<polygon fill="white" stroke="#666666" points="318,-134.5 172,-134.5 172,-115.5 318,-115.5 318,-134.5"/>
<text text-anchor="middle" x="245" y="-122.5" font-family="Helvetica,sans-Serif" font-size="10.00">alicat_basis2_modbus.hpp</text>
</a>
</g>
</g>
<!-- Node1&#45;&gt;Node2 -->
<g id="edge1_Node000001_Node000002" class="edge">
<title>Node1&#45;&gt;Node2</title>
<g id="a_edge1_Node000001_Node000002"><a xlink:title=" ">
<path fill="none" stroke="#63b8ff" d="M357.81,-175.99C335.61,-166.16 298.88,-149.88 273.38,-138.58"/>
<polygon fill="#63b8ff" stroke="#63b8ff" points="274.78,-135.37 264.22,-134.52 271.94,-141.77 274.78,-135.37"/>
</a>
</g>
</g>
<!-- Node3 -->
<g id="Node000003" class="node">
<title>Node3</title>
<g id="a_Node000003"><a xlink:title=" ">
<polygon fill="#e0e0e0" stroke="#999999" points="42,-19 0,-19 0,0 42,0 42,-19"/>
<text text-anchor="middle" x="21" y="-7" font-family="Helvetica,sans-Serif" font-size="10.00">array</text>
</a>
</g>
</g>
<!-- Node1&#45;&gt;Node3 -->
<g id="edge17_Node000001_Node000003" class="edge">
<title>Node1&#45;&gt;Node3</title>
<g id="a_edge17_Node000001_Node000003"><a xlink:title=" ">
<path fill="none" stroke="#63b8ff" d="M317.43,-179.8C266.99,-174.38 193.45,-163.06 133,-140 80.44,-119.95 54.05,-122.17 25,-74 16.89,-60.55 16.56,-42.45 17.86,-29.02"/>
<polygon fill="#63b8ff" stroke="#63b8ff" points="21.34,-29.41 19.21,-19.03 14.4,-28.48 21.34,-29.41"/>
</a>
</g>
</g>
<!-- Node4 -->
<g id="Node000004" class="node">
<title>Node4</title>
<g id="a_Node000004"><a xlink:title=" ">
<polygon fill="#e0e0e0" stroke="#999999" points="338,-19 288,-19 288,0 338,0 338,-19"/>
<text text-anchor="middle" x="313" y="-7" font-family="Helvetica,sans-Serif" font-size="10.00">cstdint</text>
</a>
</g>
</g>
<!-- Node1&#45;&gt;Node4 -->
<g id="edge18_Node000001_Node000004" class="edge">
<title>Node1&#45;&gt;Node4</title>
<g id="a_edge18_Node000001_Node000004"><a xlink:title=" ">
<path fill="none" stroke="#63b8ff" d="M436.69,-179.08C471.36,-173.56 514.48,-162.44 547,-140 582.53,-115.48 622.04,-87.83 594,-55 562.79,-18.46 416.67,-11.76 348.36,-10.65"/>
<polygon fill="#63b8ff" stroke="#63b8ff" points="348.14,-7.14 338.1,-10.51 348.05,-14.14 348.14,-7.14"/>
</a>
</g>
</g>
<!-- Node5 -->
<g id="Node000005" class="node">
<title>Node5</title>
<g id="a_Node000005"><a xlink:title=" ">
<polygon fill="#e0e0e0" stroke="#999999" points="458.5,-74 405.5,-74 405.5,-55 458.5,-55 458.5,-74"/>
<text text-anchor="middle" x="432" y="-62" font-family="Helvetica,sans-Serif" font-size="10.00">cstddef</text>
</a>
</g>
</g>
<!-- Node1&#45;&gt;Node5 -->
<g id="edge19_Node000001_Node000005" class="edge">
<title>Node1&#45;&gt;Node5</title>
<g id="a_edge19_Node000001_Node000005"><a xlink:title=" ">
<path fill="none" stroke="#63b8ff" d="M380.96,-175.94C389.87,-156.65 411.69,-109.44 423.71,-83.43"/>
<polygon fill="#63b8ff" stroke="#63b8ff" points="426.91,-84.85 427.93,-74.3 420.56,-81.91 426.91,-84.85"/>
</a>
</g>
</g>
<!-- Node6 -->
<g id="Node000006" class="node">
<title>Node6</title>
<g id="a_Node000006"><a xlink:href="alicat__basis2__registers_8hpp.html" target="_top" xlink:title="Modbus&#45;RTU holding&#45;register addresses for Alicat BASIS&#45;2.">
<polygon fill="white" stroke="#666666" points="387.5,-74 238.5,-74 238.5,-55 387.5,-55 387.5,-74"/>
<text text-anchor="middle" x="313" y="-62" font-family="Helvetica,sans-Serif" font-size="10.00">alicat_basis2_registers.hpp</text>
</a>
</g>
</g>
<!-- Node1&#45;&gt;Node6 -->
<g id="edge11_Node000001_Node000006" class="edge">
<title>Node1&#45;&gt;Node6</title>
<g id="a_edge11_Node000001_Node000006"><a xlink:title=" ">
<path fill="none" stroke="#63b8ff" d="M372.4,-175.94C362.02,-156.65 336.63,-109.44 322.64,-83.43"/>
<polygon fill="#63b8ff" stroke="#63b8ff" points="325.55,-81.45 317.73,-74.3 319.39,-84.77 325.55,-81.45"/>
</a>
</g>
</g>
<!-- Node7 -->
<g id="Node000007" class="node">
<title>Node7</title>
<g id="a_Node000007"><a xlink:href="alicat__basis2__types_8hpp.html" target="_top" xlink:title="Public type definitions for the Alicat BASIS&#45;2 driver.">
<polygon fill="white" stroke="#666666" points="183,-74 49,-74 49,-55 183,-55 183,-74"/>
<text text-anchor="middle" x="116" y="-62" font-family="Helvetica,sans-Serif" font-size="10.00">alicat_basis2_types.hpp</text>
</a>
</g>
</g>
<!-- Node1&#45;&gt;Node7 -->
<g id="edge12_Node000001_Node000007" class="edge">
<title>Node1&#45;&gt;Node7</title>
<g id="a_edge12_Node000001_Node000007"><a xlink:title=" ">
<path fill="none" stroke="#63b8ff" d="M317.16,-184.38C271.29,-181.54 208.37,-171.47 163,-140 143.02,-126.14 129.73,-100.76 122.52,-83.51"/>
<polygon fill="#63b8ff" stroke="#63b8ff" points="125.71,-82.05 118.82,-74 119.19,-84.59 125.71,-82.05"/>
</a>
</g>
</g>
<!-- Node9 -->
<g id="Node000009" class="node">
<title>Node9</title>
<g id="a_Node000009"><a xlink:href="alicat__basis2__uart__interface_8hpp.html" target="_top" xlink:title="CRTP serial transport for the Alicat BASIS&#45;2 driver.">
<polygon fill="white" stroke="#666666" points="537.5,-140 432.5,-140 432.5,-110 537.5,-110 537.5,-140"/>
<text text-anchor="start" x="440.5" y="-128" font-family="Helvetica,sans-Serif" font-size="10.00">alicat_basis2_uart</text>
<text text-anchor="middle" x="485" y="-117" font-family="Helvetica,sans-Serif" font-size="10.00">_interface.hpp</text>
</a>
</g>
</g>
<!-- Node1&#45;&gt;Node9 -->
<g id="edge13_Node000001_Node000009" class="edge">
<title>Node1&#45;&gt;Node9</title>
<g id="a_edge13_Node000001_Node000009"><a xlink:title=" ">
<path fill="none" stroke="#63b8ff" d="M392.94,-175.87C407.93,-167.75 430.89,-155.31 450.13,-144.89"/>
<polygon fill="#63b8ff" stroke="#63b8ff" points="451.82,-147.96 458.94,-140.11 448.48,-141.8 451.82,-147.96"/>
</a>
</g>
</g>
<!-- Node11 -->
<g id="Node000011" class="node">
<title>Node11</title>
<g id="a_Node000011"><a xlink:title=" ">
<polygon fill="#e0e0e0" stroke="#999999" points="691,-134.5 641,-134.5 641,-115.5 691,-115.5 691,-134.5"/>
<text text-anchor="middle" x="666" y="-122.5" font-family="Helvetica,sans-Serif" font-size="10.00">cstring</text>
</a>
</g>
</g>
<!-- Node1&#45;&gt;Node11 -->
<g id="edge20_Node000001_Node000011" class="edge">
<title>Node1&#45;&gt;Node11</title>
<g id="a_edge20_Node000001_Node000011"><a xlink:title=" ">
<path fill="none" stroke="#63b8ff" d="M436.72,-176.76C487.75,-169.46 562.89,-157.08 627,-140 629.49,-139.34 632.05,-138.58 634.61,-137.78"/>
<polygon fill="#63b8ff" stroke="#63b8ff" points="635.98,-141.01 644.34,-134.51 633.75,-134.38 635.98,-141.01"/>
</a>
</g>
</g>
<!-- Node2&#45;&gt;Node3 -->
<g id="edge2_Node000002_Node000003" class="edge">
<title>Node2&#45;&gt;Node3</title>
<g id="a_edge2_Node000002_Node000003"><a xlink:title=" ">
<path fill="none" stroke="#63b8ff" d="M181.24,-115.48C128.9,-107.25 60.22,-93.21 40,-74 27.89,-62.49 23.4,-43.61 21.79,-29.43"/>
<polygon fill="#63b8ff" stroke="#63b8ff" points="25.27,-28.99 21.02,-19.28 18.29,-29.52 25.27,-28.99"/>
</a>
</g>
</g>
<!-- Node2&#45;&gt;Node4 -->
<g id="edge3_Node000002_Node000004" class="edge">
<title>Node2&#45;&gt;Node4</title>
<g id="a_edge3_Node000002_Node000004"><a xlink:title=" ">
<path fill="none" stroke="#63b8ff" d="M239.36,-115.29C231.23,-101.53 218.42,-74.35 230,-55 240.49,-37.48 260.49,-26.46 278.23,-19.78"/>
<polygon fill="#63b8ff" stroke="#63b8ff" points="279.46,-23.05 287.78,-16.49 277.19,-16.43 279.46,-23.05"/>
</a>
</g>
</g>
<!-- Node2&#45;&gt;Node5 -->
<g id="edge4_Node000002_Node000005" class="edge">
<title>Node2&#45;&gt;Node5</title>
<g id="a_edge4_Node000002_Node000005"><a xlink:title=" ">
<path fill="none" stroke="#63b8ff" d="M272.19,-115.49C304.78,-105.3 359.52,-88.17 395.7,-76.86"/>
<polygon fill="#63b8ff" stroke="#63b8ff" points="396.88,-80.15 405.38,-73.83 394.79,-73.47 396.88,-80.15"/>
</a>
</g>
</g>
<!-- Node2&#45;&gt;Node6 -->
<g id="edge5_Node000002_Node000006" class="edge">
<title>Node2&#45;&gt;Node6</title>
<g id="a_edge5_Node000002_Node000006"><a xlink:title=" ">
<path fill="none" stroke="#63b8ff" d="M255.03,-115.37C265.58,-106.3 282.39,-91.84 295.19,-80.82"/>
<polygon fill="#63b8ff" stroke="#63b8ff" points="297.63,-83.34 302.93,-74.17 293.06,-78.04 297.63,-83.34"/>
</a>
</g>
</g>
<!-- Node2&#45;&gt;Node7 -->
<g id="edge7_Node000002_Node000007" class="edge">
<title>Node2&#45;&gt;Node7</title>
<g id="a_edge7_Node000002_Node000007"><a xlink:title=" ">
<path fill="none" stroke="#63b8ff" d="M226.24,-115.49C204.65,-105.7 168.97,-89.52 144.07,-78.23"/>
<polygon fill="#63b8ff" stroke="#63b8ff" points="145.33,-74.96 134.78,-74.02 142.44,-81.33 145.33,-74.96"/>
</a>
</g>
</g>
<!-- Node6&#45;&gt;Node4 -->
<g id="edge6_Node000006_Node000004" class="edge">
<title>Node6&#45;&gt;Node4</title>
<g id="a_edge6_Node000006_Node000004"><a xlink:title=" ">
<path fill="none" stroke="#63b8ff" d="M313,-54.75C313,-47.8 313,-37.85 313,-29.13"/>
<polygon fill="#63b8ff" stroke="#63b8ff" points="316.5,-29.09 313,-19.09 309.5,-29.09 316.5,-29.09"/>
</a>
</g>
</g>
<!-- Node7&#45;&gt;Node3 -->
<g id="edge8_Node000007_Node000003" class="edge">
<title>Node7&#45;&gt;Node3</title>
<g id="a_edge8_Node000007_Node000003"><a xlink:title=" ">
<path fill="none" stroke="#63b8ff" d="M100.74,-54.98C85.87,-46.69 63.02,-33.94 45.58,-24.22"/>
<polygon fill="#63b8ff" stroke="#63b8ff" points="46.98,-20.99 36.54,-19.17 43.57,-27.1 46.98,-20.99"/>
</a>
</g>
</g>
<!-- Node7&#45;&gt;Node4 -->
<g id="edge9_Node000007_Node000004" class="edge">
<title>Node7&#45;&gt;Node4</title>
<g id="a_edge9_Node000007_Node000004"><a xlink:title=" ">
<path fill="none" stroke="#63b8ff" d="M147.65,-54.98C183.34,-45.38 241.2,-29.82 278.16,-19.87"/>
<polygon fill="#63b8ff" stroke="#63b8ff" points="279.24,-23.21 287.99,-17.23 277.42,-16.45 279.24,-23.21"/>
</a>
</g>
</g>
<!-- Node8 -->
<g id="Node000008" class="node">
<title>Node8</title>
<g id="a_Node000008"><a xlink:title=" ">
<polygon fill="#e0e0e0" stroke="#999999" points="152.5,-19 79.5,-19 79.5,0 152.5,0 152.5,-19"/>
<text text-anchor="middle" x="116" y="-7" font-family="Helvetica,sans-Serif" font-size="10.00">string_view</text>
</a>
</g>
</g>
<!-- Node7&#45;&gt;Node8 -->
<g id="edge10_Node000007_Node000008" class="edge">
<title>Node7&#45;&gt;Node8</title>
<g id="a_edge10_Node000007_Node000008"><a xlink:title=" ">
<path fill="none" stroke="#63b8ff" d="M116,-54.75C116,-47.8 116,-37.85 116,-29.13"/>
<polygon fill="#63b8ff" stroke="#63b8ff" points="119.5,-29.09 116,-19.09 112.5,-29.09 119.5,-29.09"/>
</a>
</g>
</g>
<!-- Node9&#45;&gt;Node4 -->
<g id="edge14_Node000009_Node000004" class="edge">
<title>Node9&#45;&gt;Node4</title>
<g id="a_edge14_Node000009_Node000004"><a xlink:title=" ">
<path fill="none" stroke="#63b8ff" d="M485.44,-109.88C485.14,-94.39 482.2,-69.75 468,-55 436.77,-22.56 383.59,-13.31 348.37,-10.93"/>
<polygon fill="#63b8ff" stroke="#63b8ff" points="348.23,-7.41 338.06,-10.39 347.87,-14.41 348.23,-7.41"/>
</a>
</g>
</g>
<!-- Node9&#45;&gt;Node5 -->
<g id="edge15_Node000009_Node000005" class="edge">
<title>Node9&#45;&gt;Node5</title>
<g id="a_edge15_Node000009_Node000005"><a xlink:title=" ">
<path fill="none" stroke="#63b8ff" d="M472.17,-109.84C464.48,-101.35 454.67,-90.52 446.67,-81.69"/>
<polygon fill="#63b8ff" stroke="#63b8ff" points="449.25,-79.33 439.94,-74.27 444.06,-84.03 449.25,-79.33"/>
</a>
</g>
</g>
<!-- Node10 -->
<g id="Node000010" class="node">
<title>Node10</title>
<g id="a_Node000010"><a xlink:title=" ">
<polygon fill="#e0e0e0" stroke="#999999" points="584.5,-74 515.5,-74 515.5,-55 584.5,-55 584.5,-74"/>
<text text-anchor="middle" x="550" y="-62" font-family="Helvetica,sans-Serif" font-size="10.00">type_traits</text>
</a>
</g>
</g>
<!-- Node9&#45;&gt;Node10 -->
<g id="edge16_Node000009_Node000010" class="edge">
<title>Node9&#45;&gt;Node10</title>
<g id="a_edge16_Node000009_Node000010"><a xlink:title=" ">
<path fill="none" stroke="#63b8ff" d="M500.73,-109.84C510.36,-101.17 522.69,-90.08 532.61,-81.15"/>
<polygon fill="#63b8ff" stroke="#63b8ff" points="535.17,-83.56 540.26,-74.27 530.49,-78.35 535.17,-83.56"/>
</a>
</g>
</g>
</g>
</svg>
