<?xml version="1.0" encoding="UTF-8" standalone="no"?>
<!DOCTYPE svg PUBLIC "-//W3C//DTD SVG 1.1//EN"
 "http://www.w3.org/Graphics/SVG/1.1/DTD/svg11.dtd">
<!-- Generated by graphviz version 2.43.0 (0)
 -->
<!-- Title: inc/alicat_basis2.hpp Pages: 1 -->
<svg width="807pt" height="203pt"
 viewBox="0.00 0.00 807.00 203.00" xmlns="http://www.w3.org/2000/svg" xmlns:xlink="http://www.w3.org/1999/xlink">
<g id="graph0" class="graph" transform="scale(1 1) rotate(0) translate(4 199)">
<title>inc/alicat_basis2.hpp</title>
<!-- Node1 -->
<g id="Node000001" class="node">
<title>Node1</title>
<g id="a_Node000001"><a xlink:title="Hardware&#45;agnostic driver for Alicat BASIS&#45;2 mass&#45;flow meters and controllers (B&#45;Series / BC&#45;Series).">
<polygon fill="#999999" stroke="#666666" points="469.5,-195 350.5,-195 350.5,-176 469.5,-176 469.5,-195"/>
<text text-anchor="middle" x="410" y="-183" font-family="Helvetica,sans-Serif" font-size="10.00">inc/alicat_basis2.hpp</text>
</a>
</g>
</g>
<!-- Node2 -->
<g id="Node000002" class="node">
<title>Node2</title>
<g id="a_Node000002"><a xlink:href="alicat__basis2__modbus_8hpp.html" target="_top" xlink:title="Modbus&#45;RTU framing and CRC&#45;16 helpers used by the BASIS&#45;2 driver.">
<polygon fill="white" stroke="#666666" points="307,-134.5 161,-134.5 161,-115.5 307,-115.5 307,-134.5"/>
<text text-anchor="middle" x="234" y="-122.5" font-family="Helvetica,sans-Serif" font-size="10.00">alicat_basis2_modbus.hpp</text>
</a>
</g>
</g>
<!-- Node1&#45;&gt;Node2 -->
<g id="edge1_Node000001_Node000002" class="edge">
<title>Node1&#45;&gt;Node2</title>
<g id="a_edge1_Node000001_Node000002"><a xlink:title=" ">
<path fill="none" stroke="#63b8ff" d="M384.41,-175.99C354.04,-165.9 303.24,-149.01 269.18,-137.69"/>
<polygon fill="#63b8ff" stroke="#63b8ff" points="270.22,-134.35 259.62,-134.52 268.01,-140.99 270.22,-134.35"/>
</a>
</g>
</g>
<!-- Node3 -->
<g id="Node000003" class="node">
<title>Node3</title>
<g id="a_Node000003"><a xlink:title=" ">
<polygon fill="#e0e0e0" stroke="#999999" points="42,-19 0,-19 0,0 42,0 42,-19"/>
<text text-anchor="middle" x="21" y="-7" font-family="Helvetica,sans-Serif" font-size="10.00">array</text>
</a>
</g>
</g>
<!-- Node1&#45;&gt;Node3 -->
<g id="edge18_Node000001_Node000003" class="edge">
<title>Node1&#45;&gt;Node3</title>
<g id="a_edge18_Node000001_Node000003"><a xlink:title=" ">
<path fill="none" stroke="#63b8ff" d="M350.48,-182.44C291.68,-178.75 200.06,-168.48 126,-140 75.95,-120.75 51.99,-120.34 25,-74 17.18,-60.58 16.75,-42.74 17.94,-29.39"/>
<polygon fill="#63b8ff" stroke="#63b8ff" points="21.42,-29.78 19.2,-19.42 14.47,-28.91 21.42,-29.78"/>
</a>
</g>
</g>
<!-- Node4 -->
<g id="Node000004" class="node">
<title>Node4</title>
<g id="a_Node000004"><a xlink:title=" ">
<polygon fill="#e0e0e0" stroke="#999999" points="338,-19 288,-19 288,0 338,0 338,-19"/>
<text text-anchor="middle" x="313" y="-7" font-family="Helvetica,sans-Serif" font-size="10.00">cstdint</text>
</a>
</g>
</g>
<!-- Node1&#45;&gt;Node4 -->
<g id="edge19_Node000001_Node000004" class="edge">
<title>Node1&#45;&gt;Node4</title>
<g id="a_edge19_Node000001_Node000004"><a xlink:title=" ">
<path fill="none" stroke="#63b8ff" d="M411.64,-175.71C415.3,-153.36 421.91,-93.44 396,-55 384.77,-38.34 365.2,-27.42 347.88,-20.57"/>
<polygon fill="#63b8ff" stroke="#63b8ff" points="348.61,-17.11 338.02,-16.99 346.23,-23.69 348.61,-17.11"/>
</a>
</g>
</g>
<!-- Node5 -->
<g id="Node000005" class="node">
<title>Node5</title>
<g id="a_Node000005"><a xlink:title=" ">
<polygon fill="#e0e0e0" stroke="#999999" points="496.5,-74 443.5,-74 443.5,-55 496.5,-55 496.5,-74"/>
<text text-anchor="middle" x="470" y="-62" font-family="Helvetica,sans-Serif" font-size="10.00">cstddef</text>
</a>
</g>
</g>
<!-- Node1&#45;&gt;Node5 -->
<g id="edge20_Node000001_Node000005" class="edge">
<title>Node1&#45;&gt;Node5</title>
<g id="a_edge20_Node000001_Node000005"><a xlink:title=" ">
<path fill="none" stroke="#63b8ff" d="M414.32,-175.94C424.04,-156.65 447.84,-109.44 460.96,-83.43"/>
<polygon fill="#63b8ff" stroke="#63b8ff" points="464.19,-84.81 465.56,-74.3 457.93,-81.66 464.19,-84.81"/>
</a>
</g>
</g>
<!-- Node6 -->
<g id="Node000006" class="node">
<title>Node6</title>
<g id="a_Node000006"><a xlink:href="alicat__basis2__registers_8hpp.html" target="_top" xlink:title="Modbus&#45;RTU holding&#45;register addresses for Alicat BASIS&#45;2.">
<polygon fill="white" stroke="#666666" points="387.5,-74 238.5,-74 238.5,-55 387.5,-55 387.5,-74"/>
<text text-anchor="middle" x="313" y="-62" font-family="Helvetica,sans-Serif" font-size="10.00">alicat_basis2_registers.hpp</text>
</a>
</g>
</g>
<!-- Node1&#45;&gt;Node6 -->
<g id="edge11_Node000001_Node000006" class="edge">
<title>Node1&#45;&gt;Node6</title>
<g id="a_edge11_Node000001_Node000006"><a xlink:title=" ">
<path fill="none" stroke="#63b8ff" d="M403.02,-175.94C387.02,-156.31 347.45,-107.76 326.5,-82.07"/>
<polygon fill="#63b8ff" stroke="#63b8ff" points="329.21,-79.84 320.17,-74.3 323.78,-84.26 329.21,-79.84"/>
</a>
</g>
</g>
<!-- Node7 -->
<g id="Node000007" class="node">
<title>Node7</title>
<g id="a_Node000007"><a xlink:href="alicat__basis2__types_8hpp.html" target="_top" xlink:title="Public type definitions for the Alicat BASIS&#45;2 driver.">
<polygon fill="white" stroke="#666666" points="183,-74 49,-74 49,-55 183,-55 183,-74"/>
<text text-anchor="middle" x="116" y="-62" font-family="Helvetica,sans-Serif" font-size="10.00">alicat_basis2_types.hpp</text>
</a>
</g>
</g>
<!-- Node1&#45;&gt;Node7 -->
<g id="edge12_Node000001_Node000007" class="edge">
<title>Node1&#45;&gt;Node7</title>
<g id="a_edge12_Node000001_Node000007"><a xlink:title=" ">
<path fill="none" stroke="#63b8ff" d="M350.31,-180.49C284.08,-174.96 182.49,-162.98 152,-140 133.93,-126.38 124.47,-101.32 119.86,-84.05"/>
<polygon fill="#63b8ff" stroke="#63b8ff" points="123.2,-82.96 117.49,-74.03 116.39,-84.57 123.2,-82.96"/>
</a>
</g>
</g>
<!-- Node9 -->
<g id="Node000009" class="node">
<title>Node9</title>
<g id="a_Node000009"><a xlink:href="alicat__basis2__uart__interface_8hpp.html" target="_top" xlink:title="CRTP serial transport for the Alicat BASIS&#45;2 driver.">
<polygon fill="white" stroke="#666666" points="581.5,-140 476.5,-140 476.5,-110 581.5,-110 581.5,-140"/>
<text text-anchor="start" x="484.5" y="-128" font-family="Helvetica,sans-Serif" font-size="10.00">alicat_basis2_uart</text>
<text text-anchor="middle" x="529" y="-117" font-family="Helvetica,sans-Serif" font-size="10.00">_interface.hpp</text>
</a>
</g>
</g>
<!-- Node1&#45;&gt;Node9 -->
<g id="edge13_Node000001_Node000009" class="edge">
<title>Node1&#45;&gt;Node9</title>
<g id="a_edge13_Node000001_Node000009"><a xlink:title=" ">
<path fill="none" stroke="#63b8ff" d="M427.3,-175.99C443.92,-167.82 469.6,-155.2 490.99,-144.69"/>
<polygon fill="#63b8ff" stroke="#63b8ff" points="492.73,-147.73 500.16,-140.18 489.64,-141.45 492.73,-147.73"/>
</a>
</g>
</g>
<!-- Node11 -->
<g id="Node000011" class="node">
<title>Node11</title>
<g id="a_Node000011"><a xlink:title=" ">
<polygon fill="#e0e0e0" stroke="#999999" points="730.5,-134.5 599.5,-134.5 599.5,-115.5 730.5,-115.5 730.5,-134.5"/>
<text text-anchor="middle" x="665" y="-122.5" font-family="Helvetica,sans-Serif" font-size="10.00">alicat_basis2_version.h</text>
</a>
</g>
</g>
<!-- Node1&#45;&gt;Node11 -->
<g id="edge17_Node000001_Node000011" class="edge">
<title>Node1&#45;&gt;Node11</title>
<g id="a_edge17_Node000001_Node000011"><a xlink:title=" ">
<path fill="none" stroke="#63b8ff" d="M447.08,-175.99C492.31,-165.62 568.82,-148.07 618.1,-136.76"/>
<polygon fill="#63b8ff" stroke="#63b8ff" points="618.91,-140.16 627.88,-134.52 617.35,-133.34 618.91,-140.16"/>
</a>
</g>
</g>
<!-- Node12 -->
<g id="Node000012" class="node">
<title>Node12</title>
<g id="a_Node000012"><a xlink:title=" ">
<polygon fill="#e0e0e0" stroke="#999999" points="799,-134.5 749,-134.5 749,-115.5 799,-115.5 799,-134.5"/>
<text text-anchor="middle" x="774" y="-122.5" font-family="Helvetica,sans-Serif" font-size="10.00">cstring</text>
</a>
</g>
</g>
<!-- Node1&#45;&gt;Node12 -->
<g id="edge21_Node000001_Node000012" class="edge">
<title>Node1&#45;&gt;Node12</title>
<g id="a_edge21_Node000001_Node000012"><a xlink:title=" ">
<path fill="none" stroke="#63b8ff" d="M469.62,-181.07C536.41,-176.17 647.46,-164.85 740,-140 741.94,-139.48 743.92,-138.87 745.9,-138.21"/>
<polygon fill="#63b8ff" stroke="#63b8ff" points="747.45,-141.37 755.59,-134.58 745,-134.81 747.45,-141.37"/>
</a>
</g>
</g>
<!-- Node2&#45;&gt;Node3 -->
<g id="edge2_Node000002_Node000003" class="edge">
<title>Node2&#45;&gt;Node3</title>
<g id="a_edge2_Node000002_Node000003"><a xlink:title=" ">
<path fill="none" stroke="#63b8ff" d="M160.59,-122.1C120.2,-117.27 71.96,-104.75 40,-74 27.96,-62.42 23.47,-43.55 21.83,-29.38"/>
<polygon fill="#63b8ff" stroke="#63b8ff" points="25.31,-28.96 21.04,-19.26 18.33,-29.5 25.31,-28.96"/>
</a>
</g>
</g>
<!-- Node2&#45;&gt;Node4 -->
<g id="edge3_Node000002_Node000004" class="edge">
<title>Node2&#45;&gt;Node4</title>
<g id="a_edge3_Node000002_Node000004"><a xlink:title=" ">
<path fill="none" stroke="#63b8ff" d="M230.33,-115.19C225.17,-101.3 217.6,-73.93 229,-55 239.7,-37.22 260.15,-26.18 278.19,-19.53"/>
<polygon fill="#63b8ff" stroke="#63b8ff" points="279.52,-22.78 287.89,-16.28 277.3,-16.14 279.52,-22.78"/>
</a>
</g>
</g>
<!-- Node2&#45;&gt;Node5 -->
<g id="edge4_Node000002_Node000005" class="edge">
<title>Node2&#45;&gt;Node5</title>
<g id="a_edge4_Node000002_Node000005"><a xlink:title=" ">
<path fill="none" stroke="#63b8ff" d="M268.32,-115.49C312.32,-104.59 388.3,-85.75 433.39,-74.58"/>
<polygon fill="#63b8ff" stroke="#63b8ff" points="434.46,-77.91 443.33,-72.11 432.78,-71.12 434.46,-77.91"/>
</a>
</g>
</g>
<!-- Node2&#45;&gt;Node6 -->
<g id="edge5_Node000002_Node000006" class="edge">
<title>Node2&#45;&gt;Node6</title>
<g id="a_edge5_Node000002_Node000006"><a xlink:title=" ">
<path fill="none" stroke="#63b8ff" d="M245.66,-115.37C258.14,-106.12 278.18,-91.28 293.16,-80.19"/>
<polygon fill="#63b8ff" stroke="#63b8ff" points="295.34,-82.93 301.3,-74.17 291.18,-77.31 295.34,-82.93"/>
</a>
</g>
</g>
<!-- Node2&#45;&gt;Node7 -->
<g id="edge7_Node000002_Node000007" class="edge">
<title>Node2&#45;&gt;Node7</title>
<g id="a_edge7_Node000002_Node000007"><a xlink:title=" ">
<path fill="none" stroke="#63b8ff" d="M216.84,-115.49C197.27,-105.79 165.03,-89.81 142.28,-78.53"/>
<polygon fill="#63b8ff" stroke="#63b8ff" points="143.69,-75.32 133.18,-74.02 140.58,-81.59 143.69,-75.32"/>
</a>
</g>
</g>
<!-- Node6&#45;&gt;Node4 -->
<g id="edge6_Node000006_Node000004" class="edge">
<title>Node6&#45;&gt;Node4</title>
<g id="a_edge6_Node000006_Node000004"><a xlink:title=" ">
<path fill="none" stroke="#63b8ff" d="M313,-54.75C313,-47.8 313,-37.85 313,-29.13"/>
<polygon fill="#63b8ff" stroke="#63b8ff" points="316.5,-29.09 313,-19.09 309.5,-29.09 316.5,-29.09"/>
</a>
</g>
</g>
<!-- Node7&#45;&gt;Node3 -->
<g id="edge8_Node000007_Node000003" class="edge">
<title>Node7&#45;&gt;Node3</title>
<g id="a_edge8_Node000007_Node000003"><a xlink:title=" ">
<path fill="none" stroke="#63b8ff" d="M100.74,-54.98C85.87,-46.69 63.02,-33.94 45.58,-24.22"/>
<polygon fill="#63b8ff" stroke="#63b8ff" points="46.98,-20.99 36.54,-19.17 43.57,-27.1 46.98,-20.99"/>
</a>
</g>
</g>
<!-- Node7&#45;&gt;Node4 -->
<g id="edge9_Node000007_Node000004" class="edge">
<title>Node7&#45;&gt;Node4</title>
<g id="a_edge9_Node000007_Node000004"><a xlink:title=" ">
<path fill="none" stroke="#63b8ff" d="M147.65,-54.98C183.34,-45.38 241.2,-29.82 278.16,-19.87"/>
<polygon fill="#63b8ff" stroke="#63b8ff" points="279.24,-23.21 287.99,-17.23 277.42,-16.45 279.24,-23.21"/>
</a>
</g>
</g>
<!-- Node8 -->
<g id="Node000008" class="node">
<title>Node8</title>
<g id="a_Node000008"><a xlink:title=" ">
<polygon fill="#e0e0e0" stroke="#999999" points="152.5,-19 79.5,-19 79.5,0 152.5,0 152.5,-19"/>
<text text-anchor="middle" x="116" y="-7" font-family="Helvetica,sans-Serif" font-size="10.00">string_view</text>
</a>
</g>
</g>
<!-- Node7&#45;&gt;Node8 -->
<g id="edge10_Node000007_Node000008" class="edge">
<title>Node7&#45;&gt;Node8</title>
<g id="a_edge10_Node000007_Node000008"><a xlink:title=" ">
<path fill="none" stroke="#63b8ff" d="M116,-54.75C116,-47.8 116,-37.85 116,-29.13"/>
<polygon fill="#63b8ff" stroke="#63b8ff" points="119.5,-29.09 116,-19.09 112.5,-29.09 119.5,-29.09"/>
</a>
</g>
</g>
<!-- Node9&#45;&gt;Node4 -->
<g id="edge14_Node000009_Node000004" class="edge">
<title>Node9&#45;&gt;Node4</title>
<g id="a_edge14_Node000009_Node000004"><a xlink:title=" ">
<path fill="none" stroke="#63b8ff" d="M528.25,-109.92C526.64,-94.23 521.6,-69.19 506,-55 483.18,-34.26 397.62,-20.74 348.42,-14.5"/>
<polygon fill="#63b8ff" stroke="#63b8ff" points="348.57,-10.99 338.21,-13.25 347.71,-17.94 348.57,-10.99"/>
</a>
</g>
</g>
<!-- Node9&#45;&gt;Node5 -->
<g id="edge15_Node000009_Node000005" class="edge">
<title>Node9&#45;&gt;Node5</title>
<g id="a_edge15_Node000009_Node000005"><a xlink:title=" ">
<path fill="none" stroke="#63b8ff" d="M514.72,-109.84C506.07,-101.26 495.01,-90.3 486.06,-81.42"/>
<polygon fill="#63b8ff" stroke="#63b8ff" points="488.41,-78.82 478.84,-74.27 483.48,-83.79 488.41,-78.82"/>
</a>
</g>
</g>
<!-- Node10 -->
<g id="Node000010" class="node">
<title>Node10</title>
<g id="a_Node000010"><a xlink:title=" ">
<polygon fill="#e0e0e0" stroke="#999999" points="622.5,-74 553.5,-74 553.5,-55 622.5,-55 622.5,-74"/>
<text text-anchor="middle" x="588" y="-62" font-family="Helvetica,sans-Serif" font-size="10.00">type_traits</text>
</a>
</g>
</g>
<!-- Node9&#45;&gt;Node10 -->
<g id="edge16_Node000009_Node000010" class="edge">
<title>Node9&#45;&gt;Node10</title>
<g id="a_edge16_Node000009_Node000010"><a xlink:title=" ">
<path fill="none" stroke="#63b8ff" d="M543.28,-109.84C551.93,-101.26 562.99,-90.3 571.94,-81.42"/>
<polygon fill="#63b8ff" stroke="#63b8ff" points="574.52,-83.79 579.16,-74.27 569.59,-78.82 574.52,-83.79"/>
</a>
</g>
</g>
</g>
</svg>
