<?xml version="1.0" encoding="UTF-8" standalone="no"?>
<!DOCTYPE svg PUBLIC "-//W3C//DTD SVG 1.1//EN"
 "http://www.w3.org/Graphics/SVG/1.1/DTD/svg11.dtd">
<!-- Generated by graphviz version 2.43.0 (0)
 -->
<!-- Title: examples/esp32/main/alicat_basis2_full_example.cpp Pages: 1 -->
<svg width="855pt" height="280pt"
 viewBox="0.00 0.00 855.00 280.00" xmlns="http://www.w3.org/2000/svg" xmlns:xlink="http://www.w3.org/1999/xlink">
<g id="graph0" class="graph" transform="scale(1 1) rotate(0) translate(4 276)">
<title>examples/esp32/main/alicat_basis2_full_example.cpp</title>
<!-- Node1 -->
<g id="Node000001" class="node">
<title>Node1</title>
<g id="a_Node000001"><a xlink:title=" ">
<polygon fill="#999999" stroke="#666666" points="532.5,-272 407.5,-272 407.5,-231 532.5,-231 532.5,-272"/>
<text text-anchor="start" x="415.5" y="-260" font-family="Helvetica,sans-Serif" font-size="10.00">examples/esp32/main</text>
<text text-anchor="start" x="415.5" y="-249" font-family="Helvetica,sans-Serif" font-size="10.00">/alicat_basis2_full</text>
<text text-anchor="middle" x="470" y="-238" font-family="Helvetica,sans-Serif" font-size="10.00">_example.cpp</text>
</a>
</g>
</g>
<!-- Node2 -->
<g id="Node000002" class="node">
<title>Node2</title>
<g id="a_Node000002"><a xlink:href="alicat__basis2_8hpp.html" target="_top" xlink:title="Hardware&#45;agnostic driver for Alicat BASIS&#45;2 mass&#45;flow meters and controllers (B&#45;Series / BC&#45;Series).">
<polygon fill="white" stroke="#666666" points="330.5,-195 229.5,-195 229.5,-176 330.5,-176 330.5,-195"/>
<text text-anchor="middle" x="280" y="-183" font-family="Helvetica,sans-Serif" font-size="10.00">alicat_basis2.hpp</text>
</a>
</g>
</g>
<!-- Node1&#45;&gt;Node2 -->
<g id="edge1_Node000001_Node000002" class="edge">
<title>Node1&#45;&gt;Node2</title>
<g id="a_edge1_Node000001_Node000002"><a xlink:title=" ">
<path fill="none" stroke="#63b8ff" d="M411.96,-230.95C380.32,-220.29 342.19,-207.45 315.08,-198.31"/>
<polygon fill="#63b8ff" stroke="#63b8ff" points="315.85,-194.88 305.26,-195.01 313.62,-201.52 315.85,-194.88"/>
</a>
</g>
</g>
<!-- Node4 -->
<g id="Node000004" class="node">
<title>Node4</title>
<g id="a_Node000004"><a xlink:title=" ">
<polygon fill="#e0e0e0" stroke="#999999" points="42,-19 0,-19 0,0 42,0 42,-19"/>
<text text-anchor="middle" x="21" y="-7" font-family="Helvetica,sans-Serif" font-size="10.00">array</text>
</a>
</g>
</g>
<!-- Node1&#45;&gt;Node4 -->
<g id="edge27_Node000001_Node000004" class="edge">
<title>Node1&#45;&gt;Node4</title>
<g id="a_edge27_Node000001_Node000004"><a xlink:title=" ">
<path fill="none" stroke="#63b8ff" d="M407.36,-248.29C321.92,-242.21 168.05,-220.02 68,-140 40.85,-118.28 37.02,-106.97 26,-74 21.17,-59.56 20.09,-42.29 20.12,-29.4"/>
<polygon fill="#63b8ff" stroke="#63b8ff" points="23.62,-29.48 20.37,-19.39 16.62,-29.3 23.62,-29.48"/>
</a>
</g>
</g>
<!-- Node10 -->
<g id="Node000010" class="node">
<title>Node10</title>
<g id="a_Node000010"><a xlink:href="alicat__basis2__uart__interface_8hpp.html" target="_top" xlink:title="CRTP serial transport for the Alicat BASIS&#45;2 driver.">
<polygon fill="white" stroke="#666666" points="603.5,-140 498.5,-140 498.5,-110 603.5,-110 603.5,-140"/>
<text text-anchor="start" x="506.5" y="-128" font-family="Helvetica,sans-Serif" font-size="10.00">alicat_basis2_uart</text>
<text text-anchor="middle" x="551" y="-117" font-family="Helvetica,sans-Serif" font-size="10.00">_interface.hpp</text>
</a>
</g>
</g>
<!-- Node1&#45;&gt;Node10 -->
<g id="edge22_Node000001_Node000010" class="edge">
<title>Node1&#45;&gt;Node10</title>
<g id="a_edge22_Node000001_Node000010"><a xlink:title=" ">
<path fill="none" stroke="#63b8ff" d="M416.82,-230.93C388.47,-217.41 362.51,-197.96 379,-176 385.89,-166.82 442.06,-151.59 488.37,-140.35"/>
<polygon fill="#63b8ff" stroke="#63b8ff" points="489.47,-143.69 498.38,-137.95 487.83,-136.88 489.47,-143.69"/>
</a>
</g>
</g>
<!-- Node13 -->
<g id="Node000013" class="node">
<title>Node13</title>
<g id="a_Node000013"><a xlink:title=" ">
<polygon fill="#e0e0e0" stroke="#999999" points="464.5,-195 387.5,-195 387.5,-176 464.5,-176 464.5,-195"/>
<text text-anchor="middle" x="426" y="-183" font-family="Helvetica,sans-Serif" font-size="10.00">driver/uart.h</text>
</a>
</g>
</g>
<!-- Node1&#45;&gt;Node13 -->
<g id="edge23_Node000001_Node000013" class="edge">
<title>Node1&#45;&gt;Node13</title>
<g id="a_edge23_Node000001_Node000013"><a xlink:title=" ">
<path fill="none" stroke="#63b8ff" d="M456.56,-230.95C450.55,-222.2 443.52,-211.99 437.73,-203.56"/>
<polygon fill="#63b8ff" stroke="#63b8ff" points="440.57,-201.52 432.02,-195.26 434.8,-205.48 440.57,-201.52"/>
</a>
</g>
</g>
<!-- Node14 -->
<g id="Node000014" class="node">
<title>Node14</title>
<g id="a_Node000014"><a xlink:title=" ">
<polygon fill="#e0e0e0" stroke="#999999" points="545.5,-195 482.5,-195 482.5,-176 545.5,-176 545.5,-195"/>
<text text-anchor="middle" x="514" y="-183" font-family="Helvetica,sans-Serif" font-size="10.00">esp_log.h</text>
</a>
</g>
</g>
<!-- Node1&#45;&gt;Node14 -->
<g id="edge24_Node000001_Node000014" class="edge">
<title>Node1&#45;&gt;Node14</title>
<g id="a_edge24_Node000001_Node000014"><a xlink:title=" ">
<path fill="none" stroke="#63b8ff" d="M483.44,-230.95C489.45,-222.2 496.48,-211.99 502.27,-203.56"/>
<polygon fill="#63b8ff" stroke="#63b8ff" points="505.2,-205.48 507.98,-195.26 499.43,-201.52 505.2,-205.48"/>
</a>
</g>
</g>
<!-- Node15 -->
<g id="Node000015" class="node">
<title>Node15</title>
<g id="a_Node000015"><a xlink:title=" ">
<polygon fill="#e0e0e0" stroke="#999999" points="676.5,-195 563.5,-195 563.5,-176 676.5,-176 676.5,-195"/>
<text text-anchor="middle" x="620" y="-183" font-family="Helvetica,sans-Serif" font-size="10.00">freertos/FreeRTOS.h</text>
</a>
</g>
</g>
<!-- Node1&#45;&gt;Node15 -->
<g id="edge25_Node000001_Node000015" class="edge">
<title>Node1&#45;&gt;Node15</title>
<g id="a_edge25_Node000001_Node000015"><a xlink:title=" ">
<path fill="none" stroke="#63b8ff" d="M515.82,-230.95C540.07,-220.6 569.13,-208.2 590.4,-199.13"/>
<polygon fill="#63b8ff" stroke="#63b8ff" points="592.04,-202.24 599.86,-195.09 589.29,-195.8 592.04,-202.24"/>
</a>
</g>
</g>
<!-- Node16 -->
<g id="Node000016" class="node">
<title>Node16</title>
<g id="a_Node000016"><a xlink:title=" ">
<polygon fill="#e0e0e0" stroke="#999999" points="783,-195 695,-195 695,-176 783,-176 783,-195"/>
<text text-anchor="middle" x="739" y="-183" font-family="Helvetica,sans-Serif" font-size="10.00">freertos/task.h</text>
</a>
</g>
</g>
<!-- Node1&#45;&gt;Node16 -->
<g id="edge26_Node000001_Node000016" class="edge">
<title>Node1&#45;&gt;Node16</title>
<g id="a_edge26_Node000001_Node000016"><a xlink:title=" ">
<path fill="none" stroke="#63b8ff" d="M532.73,-235.58C581.84,-223.89 649.01,-207.91 693.18,-197.4"/>
<polygon fill="#63b8ff" stroke="#63b8ff" points="694.14,-200.77 703.06,-195.05 692.52,-193.96 694.14,-200.77"/>
</a>
</g>
</g>
<!-- Node17 -->
<g id="Node000017" class="node">
<title>Node17</title>
<g id="a_Node000017"><a xlink:title=" ">
<polygon fill="#e0e0e0" stroke="#999999" points="847,-195 801,-195 801,-176 847,-176 847,-195"/>
<text text-anchor="middle" x="824" y="-183" font-family="Helvetica,sans-Serif" font-size="10.00">cstdio</text>
</a>
</g>
</g>
<!-- Node1&#45;&gt;Node17 -->
<g id="edge28_Node000001_Node000017" class="edge">
<title>Node1&#45;&gt;Node17</title>
<g id="a_edge28_Node000001_Node000017"><a xlink:title=" ">
<path fill="none" stroke="#63b8ff" d="M532.65,-241.39C595.61,-231.86 695.59,-215.68 791.16,-195.02"/>
<polygon fill="#63b8ff" stroke="#63b8ff" points="791.96,-198.43 800.99,-192.87 790.47,-191.59 791.96,-198.43"/>
</a>
</g>
</g>
<!-- Node3 -->
<g id="Node000003" class="node">
<title>Node3</title>
<g id="a_Node000003"><a xlink:href="alicat__basis2__modbus_8hpp.html" target="_top" xlink:title="Modbus&#45;RTU framing and CRC&#45;16 helpers used by the BASIS&#45;2 driver.">
<polygon fill="white" stroke="#666666" points="404,-134.5 258,-134.5 258,-115.5 404,-115.5 404,-134.5"/>
<text text-anchor="middle" x="331" y="-122.5" font-family="Helvetica,sans-Serif" font-size="10.00">alicat_basis2_modbus.hpp</text>
</a>
</g>
</g>
<!-- Node2&#45;&gt;Node3 -->
<g id="edge2_Node000002_Node000003" class="edge">
<title>Node2&#45;&gt;Node3</title>
<g id="a_edge2_Node000002_Node000003"><a xlink:title=" ">
<path fill="none" stroke="#63b8ff" d="M287.53,-175.87C295.21,-167.05 307.32,-153.16 316.81,-142.27"/>
<polygon fill="#63b8ff" stroke="#63b8ff" points="319.51,-144.51 323.44,-134.67 314.23,-139.91 319.51,-144.51"/>
</a>
</g>
</g>
<!-- Node2&#45;&gt;Node4 -->
<g id="edge18_Node000002_Node000004" class="edge">
<title>Node2&#45;&gt;Node4</title>
<g id="a_edge18_Node000002_Node000004"><a xlink:title=" ">
<path fill="none" stroke="#63b8ff" d="M236.25,-175.95C205.04,-168.84 162.64,-157.11 128,-140 83.53,-118.03 66,-114.94 38,-74 28.84,-60.61 24.61,-42.5 22.66,-29.05"/>
<polygon fill="#63b8ff" stroke="#63b8ff" points="26.13,-28.58 21.5,-19.05 19.18,-29.39 26.13,-28.58"/>
</a>
</g>
</g>
<!-- Node5 -->
<g id="Node000005" class="node">
<title>Node5</title>
<g id="a_Node000005"><a xlink:title=" ">
<polygon fill="#e0e0e0" stroke="#999999" points="293,-19 243,-19 243,0 293,0 293,-19"/>
<text text-anchor="middle" x="268" y="-7" font-family="Helvetica,sans-Serif" font-size="10.00">cstdint</text>
</a>
</g>
</g>
<!-- Node2&#45;&gt;Node5 -->
<g id="edge19_Node000002_Node000005" class="edge">
<title>Node2&#45;&gt;Node5</title>
<g id="a_edge19_Node000002_Node000005"><a xlink:title=" ">
<path fill="none" stroke="#63b8ff" d="M271.52,-175.85C263.95,-167.47 253.4,-154.01 249,-140 236.91,-101.49 250.74,-54.08 260.35,-28.65"/>
<polygon fill="#63b8ff" stroke="#63b8ff" points="263.67,-29.78 264.12,-19.19 257.16,-27.19 263.67,-29.78"/>
</a>
</g>
</g>
<!-- Node6 -->
<g id="Node000006" class="node">
<title>Node6</title>
<g id="a_Node000006"><a xlink:title=" ">
<polygon fill="#e0e0e0" stroke="#999999" points="515.5,-74 462.5,-74 462.5,-55 515.5,-55 515.5,-74"/>
<text text-anchor="middle" x="489" y="-62" font-family="Helvetica,sans-Serif" font-size="10.00">cstddef</text>
</a>
</g>
</g>
<!-- Node2&#45;&gt;Node6 -->
<g id="edge20_Node000002_Node000006" class="edge">
<title>Node2&#45;&gt;Node6</title>
<g id="a_edge20_Node000002_Node000006"><a xlink:title=" ">
<path fill="none" stroke="#63b8ff" d="M330.54,-177.21C361.02,-171 399.53,-159.8 429,-140 450.9,-125.29 468.72,-100.16 479.09,-83.2"/>
<polygon fill="#63b8ff" stroke="#63b8ff" points="482.27,-84.69 484.32,-74.29 476.24,-81.15 482.27,-84.69"/>
</a>
</g>
</g>
<!-- Node7 -->
<g id="Node000007" class="node">
<title>Node7</title>
<g id="a_Node000007"><a xlink:href="alicat__basis2__registers_8hpp.html" target="_top" xlink:title="Modbus&#45;RTU holding&#45;register addresses for Alicat BASIS&#45;2.">
<polygon fill="white" stroke="#666666" points="444.5,-74 295.5,-74 295.5,-55 444.5,-55 444.5,-74"/>
<text text-anchor="middle" x="370" y="-62" font-family="Helvetica,sans-Serif" font-size="10.00">alicat_basis2_registers.hpp</text>
</a>
</g>
</g>
<!-- Node2&#45;&gt;Node7 -->
<g id="edge12_Node000002_Node000007" class="edge">
<title>Node2&#45;&gt;Node7</title>
<g id="a_edge12_Node000002_Node000007"><a xlink:title=" ">
<path fill="none" stroke="#63b8ff" d="M330.83,-181.55C359.97,-176.93 394.36,-165.89 413,-140 426.95,-120.63 406.71,-96.4 389.55,-80.94"/>
<polygon fill="#63b8ff" stroke="#63b8ff" points="391.41,-77.93 381.53,-74.11 386.87,-83.26 391.41,-77.93"/>
</a>
</g>
</g>
<!-- Node8 -->
<g id="Node000008" class="node">
<title>Node8</title>
<g id="a_Node000008"><a xlink:href="alicat__basis2__types_8hpp.html" target="_top" xlink:title="Public type definitions for the Alicat BASIS&#45;2 driver.">
<polygon fill="white" stroke="#666666" points="202,-74 68,-74 68,-55 202,-55 202,-74"/>
<text text-anchor="middle" x="135" y="-62" font-family="Helvetica,sans-Serif" font-size="10.00">alicat_basis2_types.hpp</text>
</a>
</g>
</g>
<!-- Node2&#45;&gt;Node8 -->
<g id="edge13_Node000002_Node000008" class="edge">
<title>Node2&#45;&gt;Node8</title>
<g id="a_edge13_Node000002_Node000008"><a xlink:title=" ">
<path fill="none" stroke="#63b8ff" d="M229.35,-181.33C199.58,-176.66 163.8,-165.63 143,-140 130.48,-124.57 130.05,-101.03 131.74,-84.55"/>
<polygon fill="#63b8ff" stroke="#63b8ff" points="135.24,-84.84 133.13,-74.46 128.3,-83.89 135.24,-84.84"/>
</a>
</g>
</g>
<!-- Node2&#45;&gt;Node10 -->
<g id="edge14_Node000002_Node000010" class="edge">
<title>Node2&#45;&gt;Node10</title>
<g id="a_edge14_Node000002_Node000010"><a xlink:title=" ">
<path fill="none" stroke="#63b8ff" d="M319.41,-175.99C363.68,-166.44 436.14,-150.79 488.23,-139.55"/>
<polygon fill="#63b8ff" stroke="#63b8ff" points="488.99,-142.97 498.03,-137.43 487.52,-136.12 488.99,-142.97"/>
</a>
</g>
</g>
<!-- Node12 -->
<g id="Node000012" class="node">
<title>Node12</title>
<g id="a_Node000012"><a xlink:title=" ">
<polygon fill="#e0e0e0" stroke="#999999" points="202,-134.5 152,-134.5 152,-115.5 202,-115.5 202,-134.5"/>
<text text-anchor="middle" x="177" y="-122.5" font-family="Helvetica,sans-Serif" font-size="10.00">cstring</text>
</a>
</g>
</g>
<!-- Node2&#45;&gt;Node12 -->
<g id="edge21_Node000002_Node000012" class="edge">
<title>Node2&#45;&gt;Node12</title>
<g id="a_edge21_Node000002_Node000012"><a xlink:title=" ">
<path fill="none" stroke="#63b8ff" d="M264.8,-175.87C247.99,-166.32 220.68,-150.81 200.98,-139.62"/>
<polygon fill="#63b8ff" stroke="#63b8ff" points="202.68,-136.56 192.26,-134.67 199.23,-142.65 202.68,-136.56"/>
</a>
</g>
</g>
<!-- Node3&#45;&gt;Node4 -->
<g id="edge3_Node000003_Node000004" class="edge">
<title>Node3&#45;&gt;Node4</title>
<g id="a_edge3_Node000003_Node000004"><a xlink:title=" ">
<path fill="none" stroke="#63b8ff" d="M269.79,-115.47C194.96,-104.62 76.11,-85.87 59,-74 43.2,-63.04 32.89,-43.19 27.04,-28.59"/>
<polygon fill="#63b8ff" stroke="#63b8ff" points="30.29,-27.28 23.57,-19.09 23.72,-29.68 30.29,-27.28"/>
</a>
</g>
</g>
<!-- Node3&#45;&gt;Node5 -->
<g id="edge4_Node000003_Node000005" class="edge">
<title>Node3&#45;&gt;Node5</title>
<g id="a_edge4_Node000003_Node000005"><a xlink:title=" ">
<path fill="none" stroke="#63b8ff" d="M321.23,-115.35C311.29,-106.05 296.08,-90.38 287,-74 279.23,-59.99 274.29,-42.44 271.41,-29.34"/>
<polygon fill="#63b8ff" stroke="#63b8ff" points="274.77,-28.3 269.37,-19.18 267.9,-29.67 274.77,-28.3"/>
</a>
</g>
</g>
<!-- Node3&#45;&gt;Node6 -->
<g id="edge5_Node000003_Node000006" class="edge">
<title>Node3&#45;&gt;Node6</title>
<g id="a_edge5_Node000003_Node000006"><a xlink:title=" ">
<path fill="none" stroke="#63b8ff" d="M353.97,-115.49C380.89,-105.53 425.67,-88.95 456.23,-77.63"/>
<polygon fill="#63b8ff" stroke="#63b8ff" points="457.84,-80.77 466,-74.02 455.4,-74.21 457.84,-80.77"/>
</a>
</g>
</g>
<!-- Node3&#45;&gt;Node7 -->
<g id="edge6_Node000003_Node000007" class="edge">
<title>Node3&#45;&gt;Node7</title>
<g id="a_edge6_Node000003_Node000007"><a xlink:title=" ">
<path fill="none" stroke="#63b8ff" d="M336.75,-115.37C342.46,-106.81 351.35,-93.47 358.51,-82.74"/>
<polygon fill="#63b8ff" stroke="#63b8ff" points="361.59,-84.43 364.22,-74.17 355.76,-80.55 361.59,-84.43"/>
</a>
</g>
</g>
<!-- Node3&#45;&gt;Node8 -->
<g id="edge8_Node000003_Node000008" class="edge">
<title>Node3&#45;&gt;Node8</title>
<g id="a_edge8_Node000003_Node000008"><a xlink:title=" ">
<path fill="none" stroke="#63b8ff" d="M302.5,-115.49C268.39,-105.31 211.13,-88.22 173.21,-76.9"/>
<polygon fill="#63b8ff" stroke="#63b8ff" points="174.12,-73.52 163.53,-74.02 172.12,-80.23 174.12,-73.52"/>
</a>
</g>
</g>
<!-- Node7&#45;&gt;Node5 -->
<g id="edge7_Node000007_Node000005" class="edge">
<title>Node7&#45;&gt;Node5</title>
<g id="a_edge7_Node000007_Node000005"><a xlink:title=" ">
<path fill="none" stroke="#63b8ff" d="M353.61,-54.98C337.43,-46.57 312.43,-33.59 293.62,-23.81"/>
<polygon fill="#63b8ff" stroke="#63b8ff" points="295.17,-20.68 284.69,-19.17 291.95,-26.89 295.17,-20.68"/>
</a>
</g>
</g>
<!-- Node8&#45;&gt;Node4 -->
<g id="edge9_Node000008_Node000004" class="edge">
<title>Node8&#45;&gt;Node4</title>
<g id="a_edge9_Node000008_Node000004"><a xlink:title=" ">
<path fill="none" stroke="#63b8ff" d="M116.68,-54.98C98.34,-46.46 69.89,-33.23 48.77,-23.41"/>
<polygon fill="#63b8ff" stroke="#63b8ff" points="50.19,-20.21 39.65,-19.17 47.24,-26.56 50.19,-20.21"/>
</a>
</g>
</g>
<!-- Node8&#45;&gt;Node5 -->
<g id="edge10_Node000008_Node000005" class="edge">
<title>Node8&#45;&gt;Node5</title>
<g id="a_edge10_Node000008_Node000005"><a xlink:title=" ">
<path fill="none" stroke="#63b8ff" d="M156.37,-54.98C178.15,-46.3 212.16,-32.75 236.92,-22.88"/>
<polygon fill="#63b8ff" stroke="#63b8ff" points="238.25,-26.12 246.24,-19.17 235.66,-19.62 238.25,-26.12"/>
</a>
</g>
</g>
<!-- Node9 -->
<g id="Node000009" class="node">
<title>Node9</title>
<g id="a_Node000009"><a xlink:title=" ">
<polygon fill="#e0e0e0" stroke="#999999" points="171.5,-19 98.5,-19 98.5,0 171.5,0 171.5,-19"/>
<text text-anchor="middle" x="135" y="-7" font-family="Helvetica,sans-Serif" font-size="10.00">string_view</text>
</a>
</g>
</g>
<!-- Node8&#45;&gt;Node9 -->
<g id="edge11_Node000008_Node000009" class="edge">
<title>Node8&#45;&gt;Node9</title>
<g id="a_edge11_Node000008_Node000009"><a xlink:title=" ">
<path fill="none" stroke="#63b8ff" d="M135,-54.75C135,-47.8 135,-37.85 135,-29.13"/>
<polygon fill="#63b8ff" stroke="#63b8ff" points="138.5,-29.09 135,-19.09 131.5,-29.09 138.5,-29.09"/>
</a>
</g>
</g>
<!-- Node10&#45;&gt;Node5 -->
<g id="edge15_Node000010_Node000005" class="edge">
<title>Node10&#45;&gt;Node5</title>
<g id="a_edge15_Node000010_Node000005"><a xlink:title=" ">
<path fill="none" stroke="#63b8ff" d="M549.73,-109.72C547.52,-93.84 541.48,-68.62 525,-55 491.76,-27.52 365.7,-16.3 303.35,-12.35"/>
<polygon fill="#63b8ff" stroke="#63b8ff" points="303.4,-8.85 293.2,-11.74 302.97,-15.84 303.4,-8.85"/>
</a>
</g>
</g>
<!-- Node10&#45;&gt;Node6 -->
<g id="edge16_Node000010_Node000006" class="edge">
<title>Node10&#45;&gt;Node6</title>
<g id="a_edge16_Node000010_Node000006"><a xlink:title=" ">
<path fill="none" stroke="#63b8ff" d="M535.99,-109.84C526.81,-101.17 515.05,-90.08 505.59,-81.15"/>
<polygon fill="#63b8ff" stroke="#63b8ff" points="507.97,-78.58 498.29,-74.27 503.16,-83.67 507.97,-78.58"/>
</a>
</g>
</g>
<!-- Node11 -->
<g id="Node000011" class="node">
<title>Node11</title>
<g id="a_Node000011"><a xlink:title=" ">
<polygon fill="#e0e0e0" stroke="#999999" points="641.5,-74 572.5,-74 572.5,-55 641.5,-55 641.5,-74"/>
<text text-anchor="middle" x="607" y="-62" font-family="Helvetica,sans-Serif" font-size="10.00">type_traits</text>
</a>
</g>
</g>
<!-- Node10&#45;&gt;Node11 -->
<g id="edge17_Node000010_Node000011" class="edge">
<title>Node10&#45;&gt;Node11</title>
<g id="a_edge17_Node000010_Node000011"><a xlink:title=" ">
<path fill="none" stroke="#63b8ff" d="M564.56,-109.84C572.68,-101.35 583.05,-90.52 591.5,-81.69"/>
<polygon fill="#63b8ff" stroke="#63b8ff" points="594.22,-83.91 598.61,-74.27 589.17,-79.07 594.22,-83.91"/>
</a>
</g>
</g>
</g>
</svg>
