<?xml version="1.0" encoding="UTF-8" standalone="no"?>
<!DOCTYPE svg PUBLIC "-//W3C//DTD SVG 1.1//EN"
 "http://www.w3.org/Graphics/SVG/1.1/DTD/svg11.dtd">
<!-- Generated by graphviz version 2.43.0 (0)
 -->
<!-- Title: examples/esp32/main/alicat_basis2_minimal_example.cpp Pages: 1 -->
<svg width="956pt" height="280pt"
 viewBox="0.00 0.00 956.00 280.00" xmlns="http://www.w3.org/2000/svg" xmlns:xlink="http://www.w3.org/1999/xlink">
<g id="graph0" class="graph" transform="scale(1 1) rotate(0) translate(4 276)">
<title>examples/esp32/main/alicat_basis2_minimal_example.cpp</title>
<!-- Node1 -->
<g id="Node000001" class="node">
<title>Node1</title>
<g id="a_Node000001"><a xlink:title=" ">
<polygon fill="#999999" stroke="#666666" points="699.5,-272 570.5,-272 570.5,-231 699.5,-231 699.5,-272"/>
<text text-anchor="start" x="578.5" y="-260" font-family="Helvetica,sans-Serif" font-size="10.00">examples/esp32/main</text>
<text text-anchor="start" x="578.5" y="-249" font-family="Helvetica,sans-Serif" font-size="10.00">/alicat_basis2_minimal</text>
<text text-anchor="middle" x="635" y="-238" font-family="Helvetica,sans-Serif" font-size="10.00">_example.cpp</text>
</a>
</g>
</g>
<!-- Node2 -->
<g id="Node000002" class="node">
<title>Node2</title>
<g id="a_Node000002"><a xlink:href="alicat__basis2_8hpp.html" target="_top" xlink:title="Hardware&#45;agnostic driver for Alicat BASIS&#45;2 mass&#45;flow meters and controllers (B&#45;Series / BC&#45;Series).">
<polygon fill="white" stroke="#666666" points="421.5,-195 320.5,-195 320.5,-176 421.5,-176 421.5,-195"/>
<text text-anchor="middle" x="371" y="-183" font-family="Helvetica,sans-Serif" font-size="10.00">alicat_basis2.hpp</text>
</a>
</g>
</g>
<!-- Node1&#45;&gt;Node2 -->
<g id="edge1_Node000001_Node000002" class="edge">
<title>Node1&#45;&gt;Node2</title>
<g id="a_edge1_Node000001_Node000002"><a xlink:title=" ">
<path fill="none" stroke="#63b8ff" d="M570.42,-234.84C522.51,-223.23 458.41,-207.69 415.96,-197.4"/>
<polygon fill="#63b8ff" stroke="#63b8ff" points="416.74,-193.99 406.19,-195.03 415.09,-200.79 416.74,-193.99"/>
</a>
</g>
</g>
<!-- Node10 -->
<g id="Node000010" class="node">
<title>Node10</title>
<g id="a_Node000010"><a xlink:href="alicat__basis2__uart__interface_8hpp.html" target="_top" xlink:title="CRTP serial transport for the Alicat BASIS&#45;2 driver.">
<polygon fill="white" stroke="#666666" points="650.5,-140 545.5,-140 545.5,-110 650.5,-110 650.5,-140"/>
<text text-anchor="start" x="553.5" y="-128" font-family="Helvetica,sans-Serif" font-size="10.00">alicat_basis2_uart</text>
<text text-anchor="middle" x="598" y="-117" font-family="Helvetica,sans-Serif" font-size="10.00">_interface.hpp</text>
</a>
</g>
</g>
<!-- Node1&#45;&gt;Node10 -->
<g id="edge23_Node000001_Node000010" class="edge">
<title>Node1&#45;&gt;Node10</title>
<g id="a_edge23_Node000001_Node000010"><a xlink:title=" ">
<path fill="none" stroke="#63b8ff" d="M583.46,-230.98C567.98,-222.41 552.79,-210.65 544,-195 534.08,-177.33 549.1,-159.37 565.8,-146.2"/>
<polygon fill="#63b8ff" stroke="#63b8ff" points="568.05,-148.89 574.03,-140.15 563.9,-143.25 568.05,-148.89"/>
</a>
</g>
</g>
<!-- Node14 -->
<g id="Node000014" class="node">
<title>Node14</title>
<g id="a_Node000014"><a xlink:title=" ">
<polygon fill="#e0e0e0" stroke="#999999" points="629.5,-195 552.5,-195 552.5,-176 629.5,-176 629.5,-195"/>
<text text-anchor="middle" x="591" y="-183" font-family="Helvetica,sans-Serif" font-size="10.00">driver/uart.h</text>
</a>
</g>
</g>
<!-- Node1&#45;&gt;Node14 -->
<g id="edge24_Node000001_Node000014" class="edge">
<title>Node1&#45;&gt;Node14</title>
<g id="a_edge24_Node000001_Node000014"><a xlink:title=" ">
<path fill="none" stroke="#63b8ff" d="M621.56,-230.95C615.55,-222.2 608.52,-211.99 602.73,-203.56"/>
<polygon fill="#63b8ff" stroke="#63b8ff" points="605.57,-201.52 597.02,-195.26 599.8,-205.48 605.57,-201.52"/>
</a>
</g>
</g>
<!-- Node15 -->
<g id="Node000015" class="node">
<title>Node15</title>
<g id="a_Node000015"><a xlink:title=" ">
<polygon fill="#e0e0e0" stroke="#999999" points="710.5,-195 647.5,-195 647.5,-176 710.5,-176 710.5,-195"/>
<text text-anchor="middle" x="679" y="-183" font-family="Helvetica,sans-Serif" font-size="10.00">esp_log.h</text>
</a>
</g>
</g>
<!-- Node1&#45;&gt;Node15 -->
<g id="edge25_Node000001_Node000015" class="edge">
<title>Node1&#45;&gt;Node15</title>
<g id="a_edge25_Node000001_Node000015"><a xlink:title=" ">
<path fill="none" stroke="#63b8ff" d="M648.44,-230.95C654.45,-222.2 661.48,-211.99 667.27,-203.56"/>
<polygon fill="#63b8ff" stroke="#63b8ff" points="670.2,-205.48 672.98,-195.26 664.43,-201.52 670.2,-205.48"/>
</a>
</g>
</g>
<!-- Node16 -->
<g id="Node000016" class="node">
<title>Node16</title>
<g id="a_Node000016"><a xlink:title=" ">
<polygon fill="#e0e0e0" stroke="#999999" points="841.5,-195 728.5,-195 728.5,-176 841.5,-176 841.5,-195"/>
<text text-anchor="middle" x="785" y="-183" font-family="Helvetica,sans-Serif" font-size="10.00">freertos/FreeRTOS.h</text>
</a>
</g>
</g>
<!-- Node1&#45;&gt;Node16 -->
<g id="edge26_Node000001_Node000016" class="edge">
<title>Node1&#45;&gt;Node16</title>
<g id="a_edge26_Node000001_Node000016"><a xlink:title=" ">
<path fill="none" stroke="#63b8ff" d="M680.82,-230.95C705.07,-220.6 734.13,-208.2 755.4,-199.13"/>
<polygon fill="#63b8ff" stroke="#63b8ff" points="757.04,-202.24 764.86,-195.09 754.29,-195.8 757.04,-202.24"/>
</a>
</g>
</g>
<!-- Node17 -->
<g id="Node000017" class="node">
<title>Node17</title>
<g id="a_Node000017"><a xlink:title=" ">
<polygon fill="#e0e0e0" stroke="#999999" points="948,-195 860,-195 860,-176 948,-176 948,-195"/>
<text text-anchor="middle" x="904" y="-183" font-family="Helvetica,sans-Serif" font-size="10.00">freertos/task.h</text>
</a>
</g>
</g>
<!-- Node1&#45;&gt;Node17 -->
<g id="edge27_Node000001_Node000017" class="edge">
<title>Node1&#45;&gt;Node17</title>
<g id="a_edge27_Node000001_Node000017"><a xlink:title=" ">
<path fill="none" stroke="#63b8ff" d="M699.77,-235.09C748.81,-223.42 814.94,-207.69 858.49,-197.33"/>
<polygon fill="#63b8ff" stroke="#63b8ff" points="859.32,-200.73 868.24,-195.01 857.7,-193.92 859.32,-200.73"/>
</a>
</g>
</g>
<!-- Node3 -->
<g id="Node000003" class="node">
<title>Node3</title>
<g id="a_Node000003"><a xlink:href="alicat__basis2__modbus_8hpp.html" target="_top" xlink:title="Modbus&#45;RTU framing and CRC&#45;16 helpers used by the BASIS&#45;2 driver.">
<polygon fill="white" stroke="#666666" points="195,-134.5 49,-134.5 49,-115.5 195,-115.5 195,-134.5"/>
<text text-anchor="middle" x="122" y="-122.5" font-family="Helvetica,sans-Serif" font-size="10.00">alicat_basis2_modbus.hpp</text>
</a>
</g>
</g>
<!-- Node2&#45;&gt;Node3 -->
<g id="edge2_Node000002_Node000003" class="edge">
<title>Node2&#45;&gt;Node3</title>
<g id="a_edge2_Node000002_Node000003"><a xlink:title=" ">
<path fill="none" stroke="#63b8ff" d="M334.79,-175.99C290.72,-165.64 216.23,-148.14 168.1,-136.83"/>
<polygon fill="#63b8ff" stroke="#63b8ff" points="168.79,-133.4 158.25,-134.52 167.18,-140.21 168.79,-133.4"/>
</a>
</g>
</g>
<!-- Node4 -->
<g id="Node000004" class="node">
<title>Node4</title>
<g id="a_Node000004"><a xlink:title=" ">
<polygon fill="#e0e0e0" stroke="#999999" points="42,-19 0,-19 0,0 42,0 42,-19"/>
<text text-anchor="middle" x="21" y="-7" font-family="Helvetica,sans-Serif" font-size="10.00">array</text>
</a>
</g>
</g>
<!-- Node2&#45;&gt;Node4 -->
<g id="edge19_Node000002_Node000004" class="edge">
<title>Node2&#45;&gt;Node4</title>
<g id="a_edge19_Node000002_Node000004"><a xlink:title=" ">
<path fill="none" stroke="#63b8ff" d="M320.27,-185.34C235.26,-185.58 69.56,-180.66 31,-140 2.77,-110.23 9.61,-57.37 15.94,-29.27"/>
<polygon fill="#63b8ff" stroke="#63b8ff" points="19.43,-29.74 18.43,-19.19 12.63,-28.06 19.43,-29.74"/>
</a>
</g>
</g>
<!-- Node5 -->
<g id="Node000005" class="node">
<title>Node5</title>
<g id="a_Node000005"><a xlink:title=" ">
<polygon fill="#e0e0e0" stroke="#999999" points="338,-19 288,-19 288,0 338,0 338,-19"/>
<text text-anchor="middle" x="313" y="-7" font-family="Helvetica,sans-Serif" font-size="10.00">cstdint</text>
</a>
</g>
</g>
<!-- Node2&#45;&gt;Node5 -->
<g id="edge20_Node000002_Node000005" class="edge">
<title>Node2&#45;&gt;Node5</title>
<g id="a_edge20_Node000002_Node000005"><a xlink:title=" ">
<path fill="none" stroke="#63b8ff" d="M413.66,-175.96C435.63,-169.52 461.26,-158.5 478,-140 504.04,-111.22 522.02,-85.48 498,-55 479.71,-31.79 396.66,-19.29 348.28,-13.86"/>
<polygon fill="#63b8ff" stroke="#63b8ff" points="348.54,-10.37 338.23,-12.78 347.79,-17.33 348.54,-10.37"/>
</a>
</g>
</g>
<!-- Node6 -->
<g id="Node000006" class="node">
<title>Node6</title>
<g id="a_Node000006"><a xlink:title=" ">
<polygon fill="#e0e0e0" stroke="#999999" points="488.5,-74 435.5,-74 435.5,-55 488.5,-55 488.5,-74"/>
<text text-anchor="middle" x="462" y="-62" font-family="Helvetica,sans-Serif" font-size="10.00">cstddef</text>
</a>
</g>
</g>
<!-- Node2&#45;&gt;Node6 -->
<g id="edge21_Node000002_Node000006" class="edge">
<title>Node2&#45;&gt;Node6</title>
<g id="a_edge21_Node000002_Node000006"><a xlink:title=" ">
<path fill="none" stroke="#63b8ff" d="M407.5,-175.93C426.57,-169.43 448.31,-158.36 460,-140 470.62,-123.33 469.27,-100.03 466.47,-83.95"/>
<polygon fill="#63b8ff" stroke="#63b8ff" points="469.89,-83.21 464.42,-74.13 463.04,-84.64 469.89,-83.21"/>
</a>
</g>
</g>
<!-- Node7 -->
<g id="Node000007" class="node">
<title>Node7</title>
<g id="a_Node000007"><a xlink:href="alicat__basis2__registers_8hpp.html" target="_top" xlink:title="Modbus&#45;RTU holding&#45;register addresses for Alicat BASIS&#45;2.">
<polygon fill="white" stroke="#666666" points="387.5,-74 238.5,-74 238.5,-55 387.5,-55 387.5,-74"/>
<text text-anchor="middle" x="313" y="-62" font-family="Helvetica,sans-Serif" font-size="10.00">alicat_basis2_registers.hpp</text>
</a>
</g>
</g>
<!-- Node2&#45;&gt;Node7 -->
<g id="edge12_Node000002_Node000007" class="edge">
<title>Node2&#45;&gt;Node7</title>
<g id="a_edge12_Node000002_Node000007"><a xlink:title=" ">
<path fill="none" stroke="#63b8ff" d="M320.41,-180.72C292.7,-175.75 260.52,-164.64 243,-140 235.27,-129.13 236.58,-121.69 243,-110 250.77,-95.85 265.17,-85.56 278.89,-78.46"/>
<polygon fill="#63b8ff" stroke="#63b8ff" points="280.66,-81.49 288.19,-74.05 277.66,-75.17 280.66,-81.49"/>
</a>
</g>
</g>
<!-- Node8 -->
<g id="Node000008" class="node">
<title>Node8</title>
<g id="a_Node000008"><a xlink:href="alicat__basis2__types_8hpp.html" target="_top" xlink:title="Public type definitions for the Alicat BASIS&#45;2 driver.">
<polygon fill="white" stroke="#666666" points="183,-74 49,-74 49,-55 183,-55 183,-74"/>
<text text-anchor="middle" x="116" y="-62" font-family="Helvetica,sans-Serif" font-size="10.00">alicat_basis2_types.hpp</text>
</a>
</g>
</g>
<!-- Node2&#45;&gt;Node8 -->
<g id="edge13_Node000002_Node000008" class="edge">
<title>Node2&#45;&gt;Node8</title>
<g id="a_edge13_Node000002_Node000008"><a xlink:title=" ">
<path fill="none" stroke="#63b8ff" d="M320.27,-185.44C236.71,-185.77 75.78,-180.92 40,-140 31.22,-129.96 33.37,-121.57 40,-110 48.36,-95.42 63.55,-85.16 78.17,-78.19"/>
<polygon fill="#63b8ff" stroke="#63b8ff" points="79.84,-81.28 87.61,-74.08 77.05,-74.86 79.84,-81.28"/>
</a>
</g>
</g>
<!-- Node2&#45;&gt;Node10 -->
<g id="edge14_Node000002_Node000010" class="edge">
<title>Node2&#45;&gt;Node10</title>
<g id="a_edge14_Node000002_Node000010"><a xlink:title=" ">
<path fill="none" stroke="#63b8ff" d="M404.01,-175.99C438.35,-167.14 492.93,-153.08 535.47,-142.11"/>
<polygon fill="#63b8ff" stroke="#63b8ff" points="536.36,-145.5 545.17,-139.61 534.62,-138.72 536.36,-145.5"/>
</a>
</g>
</g>
<!-- Node12 -->
<g id="Node000012" class="node">
<title>Node12</title>
<g id="a_Node000012"><a xlink:title=" ">
<polygon fill="#e0e0e0" stroke="#999999" points="382.5,-134.5 251.5,-134.5 251.5,-115.5 382.5,-115.5 382.5,-134.5"/>
<text text-anchor="middle" x="317" y="-122.5" font-family="Helvetica,sans-Serif" font-size="10.00">alicat_basis2_version.h</text>
</a>
</g>
</g>
<!-- Node2&#45;&gt;Node12 -->
<g id="edge18_Node000002_Node000012" class="edge">
<title>Node2&#45;&gt;Node12</title>
<g id="a_edge18_Node000002_Node000012"><a xlink:title=" ">
<path fill="none" stroke="#63b8ff" d="M363.03,-175.87C354.9,-167.05 342.07,-153.16 332.02,-142.27"/>
<polygon fill="#63b8ff" stroke="#63b8ff" points="334.36,-139.64 325,-134.67 329.21,-144.39 334.36,-139.64"/>
</a>
</g>
</g>
<!-- Node13 -->
<g id="Node000013" class="node">
<title>Node13</title>
<g id="a_Node000013"><a xlink:title=" ">
<polygon fill="#e0e0e0" stroke="#999999" points="451,-134.5 401,-134.5 401,-115.5 451,-115.5 451,-134.5"/>
<text text-anchor="middle" x="426" y="-122.5" font-family="Helvetica,sans-Serif" font-size="10.00">cstring</text>
</a>
</g>
</g>
<!-- Node2&#45;&gt;Node13 -->
<g id="edge22_Node000002_Node000013" class="edge">
<title>Node2&#45;&gt;Node13</title>
<g id="a_edge22_Node000002_Node000013"><a xlink:title=" ">
<path fill="none" stroke="#63b8ff" d="M379.12,-175.87C387.4,-167.05 400.47,-153.16 410.7,-142.27"/>
<polygon fill="#63b8ff" stroke="#63b8ff" points="413.55,-144.35 417.85,-134.67 408.45,-139.56 413.55,-144.35"/>
</a>
</g>
</g>
<!-- Node3&#45;&gt;Node4 -->
<g id="edge3_Node000003_Node000004" class="edge">
<title>Node3&#45;&gt;Node4</title>
<g id="a_edge3_Node000003_Node000004"><a xlink:title=" ">
<path fill="none" stroke="#63b8ff" d="M98.95,-115.41C80.46,-107.38 55.17,-93.67 40,-74 30.01,-61.04 25.25,-42.89 23,-29.31"/>
<polygon fill="#63b8ff" stroke="#63b8ff" points="26.44,-28.64 21.64,-19.19 19.51,-29.57 26.44,-28.64"/>
</a>
</g>
</g>
<!-- Node3&#45;&gt;Node5 -->
<g id="edge4_Node000003_Node000005" class="edge">
<title>Node3&#45;&gt;Node5</title>
<g id="a_edge4_Node000003_Node000005"><a xlink:title=" ">
<path fill="none" stroke="#63b8ff" d="M134.77,-115.39C154.78,-102.01 194.88,-75.6 230,-55 248.75,-44.01 270.4,-32.43 286.89,-23.85"/>
<polygon fill="#63b8ff" stroke="#63b8ff" points="288.67,-26.87 295.94,-19.16 285.45,-20.65 288.67,-26.87"/>
</a>
</g>
</g>
<!-- Node3&#45;&gt;Node6 -->
<g id="edge5_Node000003_Node000006" class="edge">
<title>Node3&#45;&gt;Node6</title>
<g id="a_edge5_Node000003_Node000006"><a xlink:title=" ">
<path fill="none" stroke="#63b8ff" d="M171.44,-115.49C240.38,-103.63 363.84,-82.39 425.24,-71.83"/>
<polygon fill="#63b8ff" stroke="#63b8ff" points="425.98,-75.25 435.25,-70.1 424.8,-68.35 425.98,-75.25"/>
</a>
</g>
</g>
<!-- Node3&#45;&gt;Node7 -->
<g id="edge6_Node000003_Node000007" class="edge">
<title>Node3&#45;&gt;Node7</title>
<g id="a_edge6_Node000003_Node000007"><a xlink:title=" ">
<path fill="none" stroke="#63b8ff" d="M149.77,-115.49C182.87,-105.36 238.34,-88.37 275.29,-77.05"/>
<polygon fill="#63b8ff" stroke="#63b8ff" points="276.66,-80.29 285.19,-74.02 274.61,-73.6 276.66,-80.29"/>
</a>
</g>
</g>
<!-- Node3&#45;&gt;Node8 -->
<g id="edge8_Node000003_Node000008" class="edge">
<title>Node3&#45;&gt;Node8</title>
<g id="a_edge8_Node000003_Node000008"><a xlink:title=" ">
<path fill="none" stroke="#63b8ff" d="M121.11,-115.37C120.28,-107.25 119.01,-94.81 117.94,-84.39"/>
<polygon fill="#63b8ff" stroke="#63b8ff" points="121.39,-83.76 116.89,-74.17 114.43,-84.47 121.39,-83.76"/>
</a>
</g>
</g>
<!-- Node7&#45;&gt;Node5 -->
<g id="edge7_Node000007_Node000005" class="edge">
<title>Node7&#45;&gt;Node5</title>
<g id="a_edge7_Node000007_Node000005"><a xlink:title=" ">
<path fill="none" stroke="#63b8ff" d="M313,-54.75C313,-47.8 313,-37.85 313,-29.13"/>
<polygon fill="#63b8ff" stroke="#63b8ff" points="316.5,-29.09 313,-19.09 309.5,-29.09 316.5,-29.09"/>
</a>
</g>
</g>
<!-- Node8&#45;&gt;Node4 -->
<g id="edge9_Node000008_Node000004" class="edge">
<title>Node8&#45;&gt;Node4</title>
<g id="a_edge9_Node000008_Node000004"><a xlink:title=" ">
<path fill="none" stroke="#63b8ff" d="M100.74,-54.98C85.87,-46.69 63.02,-33.94 45.58,-24.22"/>
<polygon fill="#63b8ff" stroke="#63b8ff" points="46.98,-20.99 36.54,-19.17 43.57,-27.1 46.98,-20.99"/>
</a>
</g>
</g>
<!-- Node8&#45;&gt;Node5 -->
<g id="edge10_Node000008_Node000005" class="edge">
<title>Node8&#45;&gt;Node5</title>
<g id="a_edge10_Node000008_Node000005"><a xlink:title=" ">
<path fill="none" stroke="#63b8ff" d="M147.65,-54.98C183.34,-45.38 241.2,-29.82 278.16,-19.87"/>
<polygon fill="#63b8ff" stroke="#63b8ff" points="279.24,-23.21 287.99,-17.23 277.42,-16.45 279.24,-23.21"/>
</a>
</g>
</g>
<!-- Node9 -->
<g id="Node000009" class="node">
<title>Node9</title>
<g id="a_Node000009"><a xlink:title=" ">
<polygon fill="#e0e0e0" stroke="#999999" points="152.5,-19 79.5,-19 79.5,0 152.5,0 152.5,-19"/>
<text text-anchor="middle" x="116" y="-7" font-family="Helvetica,sans-Serif" font-size="10.00">string_view</text>
</a>
</g>
</g>
<!-- Node8&#45;&gt;Node9 -->
<g id="edge11_Node000008_Node000009" class="edge">
<title>Node8&#45;&gt;Node9</title>
<g id="a_edge11_Node000008_Node000009"><a xlink:title=" ">
<path fill="none" stroke="#63b8ff" d="M116,-54.75C116,-47.8 116,-37.85 116,-29.13"/>
<polygon fill="#63b8ff" stroke="#63b8ff" points="119.5,-29.09 116,-19.09 112.5,-29.09 119.5,-29.09"/>
</a>
</g>
</g>
<!-- Node10&#45;&gt;Node5 -->
<g id="edge15_Node000010_Node000005" class="edge">
<title>Node10&#45;&gt;Node5</title>
<g id="a_edge15_Node000010_Node000005"><a xlink:title=" ">
<path fill="none" stroke="#63b8ff" d="M588.42,-109.92C576.77,-93.97 555.61,-68.47 531,-55 472.34,-22.9 393.32,-13.86 348.31,-11.38"/>
<polygon fill="#63b8ff" stroke="#63b8ff" points="348.32,-7.87 338.16,-10.9 347.99,-14.87 348.32,-7.87"/>
</a>
</g>
</g>
<!-- Node10&#45;&gt;Node6 -->
<g id="edge16_Node000010_Node000006" class="edge">
<title>Node10&#45;&gt;Node6</title>
<g id="a_edge16_Node000010_Node000006"><a xlink:title=" ">
<path fill="none" stroke="#63b8ff" d="M565.42,-109.99C542.94,-100.31 513.28,-87.56 491.49,-78.18"/>
<polygon fill="#63b8ff" stroke="#63b8ff" points="492.65,-74.88 482.08,-74.14 489.89,-81.31 492.65,-74.88"/>
</a>
</g>
</g>
<!-- Node11 -->
<g id="Node000011" class="node">
<title>Node11</title>
<g id="a_Node000011"><a xlink:title=" ">
<polygon fill="#e0e0e0" stroke="#999999" points="652.5,-74 583.5,-74 583.5,-55 652.5,-55 652.5,-74"/>
<text text-anchor="middle" x="618" y="-62" font-family="Helvetica,sans-Serif" font-size="10.00">type_traits</text>
</a>
</g>
</g>
<!-- Node10&#45;&gt;Node11 -->
<g id="edge17_Node000010_Node000011" class="edge">
<title>Node10&#45;&gt;Node11</title>
<g id="a_edge17_Node000010_Node000011"><a xlink:title=" ">
<path fill="none" stroke="#63b8ff" d="M602.84,-109.84C605.51,-102.04 608.85,-92.27 611.71,-83.89"/>
<polygon fill="#63b8ff" stroke="#63b8ff" points="615.08,-84.86 615,-74.27 608.46,-82.6 615.08,-84.86"/>
</a>
</g>
</g>
</g>
</svg>
