<?xml version="1.0" encoding="UTF-8" standalone="no"?>
<!DOCTYPE svg PUBLIC "-//W3C//DTD SVG 1.1//EN"
 "http://www.w3.org/Graphics/SVG/1.1/DTD/svg11.dtd">
<!-- Generated by graphviz version 2.43.0 (0)
 -->
<!-- Title: inc/alicat_basis2_uart_interface.hpp Pages: 1 -->
<svg width="288pt" height="170pt"
 viewBox="0.00 0.00 288.00 170.00" xmlns="http://www.w3.org/2000/svg" xmlns:xlink="http://www.w3.org/1999/xlink">
<g id="graph0" class="graph" transform="scale(1 1) rotate(0) translate(4 166)">
<title>inc/alicat_basis2_uart_interface.hpp</title>
<!-- Node1 -->
<g id="Node000001" class="node">
<title>Node1</title>
<g id="a_Node000001"><a xlink:title="CRTP serial transport for the Alicat BASIS&#45;2 driver.">
<polygon fill="#999999" stroke="#666666" points="196.5,-162 74.5,-162 74.5,-132 196.5,-132 196.5,-162"/>
<text text-anchor="start" x="82.5" y="-150" font-family="Helvetica,sans-Serif" font-size="10.00">inc/alicat_basis2_uart</text>
<text text-anchor="middle" x="135.5" y="-139" font-family="Helvetica,sans-Serif" font-size="10.00">_interface.hpp</text>
</a>
</g>
</g>
<!-- Node2 -->
<g id="Node000002" class="node">
<title>Node2</title>
<g id="a_Node000002"><a xlink:href="alicat__basis2__full__example_8cpp.html" target="_top" xlink:title=" ">
<polygon fill="white" stroke="#666666" points="125,-41 0,-41 0,0 125,0 125,-41"/>
<text text-anchor="start" x="8" y="-29" font-family="Helvetica,sans-Serif" font-size="10.00">examples/esp32/main</text>
<text text-anchor="start" x="8" y="-18" font-family="Helvetica,sans-Serif" font-size="10.00">/alicat_basis2_full</text>
<text text-anchor="middle" x="62.5" y="-7" font-family="Helvetica,sans-Serif" font-size="10.00">_example.cpp</text>
</a>
</g>
</g>
<!-- Node1&#45;&gt;Node2 -->
<g id="edge1_Node000001_Node000002" class="edge">
<title>Node1&#45;&gt;Node2</title>
<g id="a_edge1_Node000001_Node000002"><a xlink:title=" ">
<path fill="none" stroke="#63b8ff" d="M96.16,-126.34C84.6,-118.54 73.27,-108.42 66.5,-96 57.33,-79.16 57.43,-56.9 59.14,-41.1"/>
<polygon fill="#63b8ff" stroke="#63b8ff" points="94.63,-129.52 104.96,-131.86 98.34,-123.58 94.63,-129.52"/>
</a>
</g>
</g>
<!-- Node3 -->
<g id="Node000003" class="node">
<title>Node3</title>
<g id="a_Node000003"><a xlink:href="alicat__basis2__minimal__example_8cpp.html" target="_top" xlink:title=" ">
<polygon fill="white" stroke="#666666" points="280,-41 151,-41 151,0 280,0 280,-41"/>
<text text-anchor="start" x="159" y="-29" font-family="Helvetica,sans-Serif" font-size="10.00">examples/esp32/main</text>
<text text-anchor="start" x="159" y="-18" font-family="Helvetica,sans-Serif" font-size="10.00">/alicat_basis2_minimal</text>
<text text-anchor="middle" x="215.5" y="-7" font-family="Helvetica,sans-Serif" font-size="10.00">_example.cpp</text>
</a>
</g>
</g>
<!-- Node1&#45;&gt;Node3 -->
<g id="edge2_Node000001_Node000003" class="edge">
<title>Node1&#45;&gt;Node3</title>
<g id="a_edge2_Node000001_Node000003"><a xlink:title=" ">
<path fill="none" stroke="#63b8ff" d="M173.25,-126.58C185.07,-118.66 196.97,-108.42 204.5,-96 214.53,-79.45 216.64,-57.14 216.64,-41.26"/>
<polygon fill="#63b8ff" stroke="#63b8ff" points="171.34,-123.65 164.73,-131.93 175.06,-129.58 171.34,-123.65"/>
</a>
</g>
</g>
<!-- Node4 -->
<g id="Node000004" class="node">
<title>Node4</title>
<g id="a_Node000004"><a xlink:href="alicat__basis2_8hpp.html" target="_top" xlink:title="Hardware&#45;agnostic driver for Alicat BASIS&#45;2 mass&#45;flow meters and controllers (B&#45;Series / BC&#45;Series).">
<polygon fill="white" stroke="#666666" points="195,-96 76,-96 76,-77 195,-77 195,-96"/>
<text text-anchor="middle" x="135.5" y="-84" font-family="Helvetica,sans-Serif" font-size="10.00">inc/alicat_basis2.hpp</text>
</a>
</g>
</g>
<!-- Node1&#45;&gt;Node4 -->
<g id="edge3_Node000001_Node000004" class="edge">
<title>Node1&#45;&gt;Node4</title>
<g id="a_edge3_Node000001_Node000004"><a xlink:title=" ">
<path fill="none" stroke="#63b8ff" d="M135.5,-121.75C135.5,-112.72 135.5,-103.03 135.5,-96.27"/>
<polygon fill="#63b8ff" stroke="#63b8ff" points="132,-121.84 135.5,-131.84 139,-121.84 132,-121.84"/>
</a>
</g>
</g>
<!-- Node4&#45;&gt;Node2 -->
<g id="edge4_Node000004_Node000002" class="edge">
<title>Node4&#45;&gt;Node2</title>
<g id="a_edge4_Node000004_Node000002"><a xlink:title=" ">
<path fill="none" stroke="#63b8ff" d="M117.99,-70.15C108.02,-61.41 95.42,-50.36 84.75,-41.01"/>
<polygon fill="#63b8ff" stroke="#63b8ff" points="115.83,-72.91 125.65,-76.87 120.44,-67.64 115.83,-72.91"/>
</a>
</g>
</g>
<!-- Node4&#45;&gt;Node3 -->
<g id="edge5_Node000004_Node000003" class="edge">
<title>Node4&#45;&gt;Node3</title>
<g id="a_edge5_Node000004_Node000003"><a xlink:title=" ">
<path fill="none" stroke="#63b8ff" d="M154.36,-70.41C165.34,-61.63 179.3,-50.46 191.11,-41.01"/>
<polygon fill="#63b8ff" stroke="#63b8ff" points="151.91,-67.89 146.29,-76.87 156.28,-73.35 151.91,-67.89"/>
</a>
</g>
</g>
</g>
</svg>
