<?xml version="1.0" encoding="UTF-8" standalone="no"?>
<!DOCTYPE svg PUBLIC "-//W3C//DTD SVG 1.1//EN"
 "http://www.w3.org/Graphics/SVG/1.1/DTD/svg11.dtd">
<!-- Generated by graphviz version 2.43.0 (0)
 -->
<!-- Title: examples/esp32/main/alicat_basis2_full_example.cpp Pages: 1 -->
<svg width="943pt" height="280pt"
 viewBox="0.00 0.00 942.52 280.00" xmlns="http://www.w3.org/2000/svg" xmlns:xlink="http://www.w3.org/1999/xlink">
<g id="graph0" class="graph" transform="scale(1 1) rotate(0) translate(4 276)">
<title>examples/esp32/main/alicat_basis2_full_example.cpp</title>
<!-- Node1 -->
<g id="Node000001" class="node">
<title>Node1</title>
<g id="a_Node000001"><a xlink:title=" ">
<polygon fill="#999999" stroke="#666666" points="620.02,-272 495.02,-272 495.02,-231 620.02,-231 620.02,-272"/>
<text text-anchor="start" x="503.02" y="-260" font-family="Helvetica,sans-Serif" font-size="10.00">examples/esp32/main</text>
<text text-anchor="start" x="503.02" y="-249" font-family="Helvetica,sans-Serif" font-size="10.00">/alicat_basis2_full</text>
<text text-anchor="middle" x="557.52" y="-238" font-family="Helvetica,sans-Serif" font-size="10.00">_example.cpp</text>
</a>
</g>
</g>
<!-- Node2 -->
<g id="Node000002" class="node">
<title>Node2</title>
<g id="a_Node000002"><a xlink:href="alicat__basis2_8hpp.html" target="_top" xlink:title="Hardware&#45;agnostic driver for Alicat BASIS&#45;2 mass&#45;flow meters and controllers (B&#45;Series / BC&#45;Series).">
<polygon fill="white" stroke="#666666" points="418.02,-195 317.02,-195 317.02,-176 418.02,-176 418.02,-195"/>
<text text-anchor="middle" x="367.52" y="-183" font-family="Helvetica,sans-Serif" font-size="10.00">alicat_basis2.hpp</text>
</a>
</g>
</g>
<!-- Node1&#45;&gt;Node2 -->
<g id="edge1_Node000001_Node000002" class="edge">
<title>Node1&#45;&gt;Node2</title>
<g id="a_edge1_Node000001_Node000002"><a xlink:title=" ">
<path fill="none" stroke="#63b8ff" d="M499.48,-230.95C467.84,-220.29 429.72,-207.45 402.6,-198.31"/>
<polygon fill="#63b8ff" stroke="#63b8ff" points="403.38,-194.88 392.78,-195.01 401.14,-201.52 403.38,-194.88"/>
</a>
</g>
</g>
<!-- Node4 -->
<g id="Node000004" class="node">
<title>Node4</title>
<g id="a_Node000004"><a xlink:title=" ">
<polygon fill="#e0e0e0" stroke="#999999" points="58.52,-19 16.52,-19 16.52,0 58.52,0 58.52,-19"/>
<text text-anchor="middle" x="37.52" y="-7" font-family="Helvetica,sans-Serif" font-size="10.00">array</text>
</a>
</g>
</g>
<!-- Node1&#45;&gt;Node4 -->
<g id="edge28_Node000001_Node000004" class="edge">
<title>Node1&#45;&gt;Node4</title>
<g id="a_edge28_Node000001_Node000004"><a xlink:title=" ">
<path fill="none" stroke="#63b8ff" d="M494.6,-247.39C364.48,-239.5 72.87,-213.81 12.52,-140 -14.07,-107.48 10.3,-55.06 26.24,-27.96"/>
<polygon fill="#63b8ff" stroke="#63b8ff" points="29.36,-29.56 31.62,-19.21 23.4,-25.9 29.36,-29.56"/>
</a>
</g>
</g>
<!-- Node10 -->
<g id="Node000010" class="node">
<title>Node10</title>
<g id="a_Node000010"><a xlink:href="alicat__basis2__uart__interface_8hpp.html" target="_top" xlink:title="CRTP serial transport for the Alicat BASIS&#45;2 driver.">
<polygon fill="white" stroke="#666666" points="678.02,-140 573.02,-140 573.02,-110 678.02,-110 678.02,-140"/>
<text text-anchor="start" x="581.02" y="-128" font-family="Helvetica,sans-Serif" font-size="10.00">alicat_basis2_uart</text>
<text text-anchor="middle" x="625.52" y="-117" font-family="Helvetica,sans-Serif" font-size="10.00">_interface.hpp</text>
</a>
</g>
</g>
<!-- Node1&#45;&gt;Node10 -->
<g id="edge23_Node000001_Node000010" class="edge">
<title>Node1&#45;&gt;Node10</title>
<g id="a_edge23_Node000001_Node000010"><a xlink:title=" ">
<path fill="none" stroke="#63b8ff" d="M504.19,-230.9C476.03,-217.44 450.34,-198.06 466.52,-176 472.61,-167.71 520.93,-153.22 562.72,-141.96"/>
<polygon fill="#63b8ff" stroke="#63b8ff" points="563.86,-145.28 572.63,-139.32 562.06,-138.52 563.86,-145.28"/>
</a>
</g>
</g>
<!-- Node14 -->
<g id="Node000014" class="node">
<title>Node14</title>
<g id="a_Node000014"><a xlink:title=" ">
<polygon fill="#e0e0e0" stroke="#999999" points="552.02,-195 475.02,-195 475.02,-176 552.02,-176 552.02,-195"/>
<text text-anchor="middle" x="513.52" y="-183" font-family="Helvetica,sans-Serif" font-size="10.00">driver/uart.h</text>
</a>
</g>
</g>
<!-- Node1&#45;&gt;Node14 -->
<g id="edge24_Node000001_Node000014" class="edge">
<title>Node1&#45;&gt;Node14</title>
<g id="a_edge24_Node000001_Node000014"><a xlink:title=" ">
<path fill="none" stroke="#63b8ff" d="M544.08,-230.95C538.07,-222.2 531.05,-211.99 525.25,-203.56"/>
<polygon fill="#63b8ff" stroke="#63b8ff" points="528.1,-201.52 519.55,-195.26 522.33,-205.48 528.1,-201.52"/>
</a>
</g>
</g>
<!-- Node15 -->
<g id="Node000015" class="node">
<title>Node15</title>
<g id="a_Node000015"><a xlink:title=" ">
<polygon fill="#e0e0e0" stroke="#999999" points="633.02,-195 570.02,-195 570.02,-176 633.02,-176 633.02,-195"/>
<text text-anchor="middle" x="601.52" y="-183" font-family="Helvetica,sans-Serif" font-size="10.00">esp_log.h</text>
</a>
</g>
</g>
<!-- Node1&#45;&gt;Node15 -->
<g id="edge25_Node000001_Node000015" class="edge">
<title>Node1&#45;&gt;Node15</title>
<g id="a_edge25_Node000001_Node000015"><a xlink:title=" ">
<path fill="none" stroke="#63b8ff" d="M570.96,-230.95C576.98,-222.2 584,-211.99 589.8,-203.56"/>
<polygon fill="#63b8ff" stroke="#63b8ff" points="592.72,-205.48 595.5,-195.26 586.95,-201.52 592.72,-205.48"/>
</a>
</g>
</g>
<!-- Node16 -->
<g id="Node000016" class="node">
<title>Node16</title>
<g id="a_Node000016"><a xlink:title=" ">
<polygon fill="#e0e0e0" stroke="#999999" points="764.02,-195 651.02,-195 651.02,-176 764.02,-176 764.02,-195"/>
<text text-anchor="middle" x="707.52" y="-183" font-family="Helvetica,sans-Serif" font-size="10.00">freertos/FreeRTOS.h</text>
</a>
</g>
</g>
<!-- Node1&#45;&gt;Node16 -->
<g id="edge26_Node000001_Node000016" class="edge">
<title>Node1&#45;&gt;Node16</title>
<g id="a_edge26_Node000001_Node000016"><a xlink:title=" ">
<path fill="none" stroke="#63b8ff" d="M603.34,-230.95C627.59,-220.6 656.66,-208.2 677.92,-199.13"/>
<polygon fill="#63b8ff" stroke="#63b8ff" points="679.56,-202.24 687.39,-195.09 676.81,-195.8 679.56,-202.24"/>
</a>
</g>
</g>
<!-- Node17 -->
<g id="Node000017" class="node">
<title>Node17</title>
<g id="a_Node000017"><a xlink:title=" ">
<polygon fill="#e0e0e0" stroke="#999999" points="870.52,-195 782.52,-195 782.52,-176 870.52,-176 870.52,-195"/>
<text text-anchor="middle" x="826.52" y="-183" font-family="Helvetica,sans-Serif" font-size="10.00">freertos/task.h</text>
</a>
</g>
</g>
<!-- Node1&#45;&gt;Node17 -->
<g id="edge27_Node000001_Node000017" class="edge">
<title>Node1&#45;&gt;Node17</title>
<g id="a_edge27_Node000001_Node000017"><a xlink:title=" ">
<path fill="none" stroke="#63b8ff" d="M620.25,-235.58C669.37,-223.89 736.54,-207.91 780.7,-197.4"/>
<polygon fill="#63b8ff" stroke="#63b8ff" points="781.66,-200.77 790.58,-195.05 780.04,-193.96 781.66,-200.77"/>
</a>
</g>
</g>
<!-- Node18 -->
<g id="Node000018" class="node">
<title>Node18</title>
<g id="a_Node000018"><a xlink:title=" ">
<polygon fill="#e0e0e0" stroke="#999999" points="934.52,-195 888.52,-195 888.52,-176 934.52,-176 934.52,-195"/>
<text text-anchor="middle" x="911.52" y="-183" font-family="Helvetica,sans-Serif" font-size="10.00">cstdio</text>
</a>
</g>
</g>
<!-- Node1&#45;&gt;Node18 -->
<g id="edge29_Node000001_Node000018" class="edge">
<title>Node1&#45;&gt;Node18</title>
<g id="a_edge29_Node000001_Node000018"><a xlink:title=" ">
<path fill="none" stroke="#63b8ff" d="M620.17,-241.39C683.13,-231.86 783.11,-215.68 878.68,-195.02"/>
<polygon fill="#63b8ff" stroke="#63b8ff" points="879.49,-198.43 888.51,-192.87 877.99,-191.59 879.49,-198.43"/>
</a>
</g>
</g>
<!-- Node3 -->
<g id="Node000003" class="node">
<title>Node3</title>
<g id="a_Node000003"><a xlink:href="alicat__basis2__modbus_8hpp.html" target="_top" xlink:title="Modbus&#45;RTU framing and CRC&#45;16 helpers used by the BASIS&#45;2 driver.">
<polygon fill="white" stroke="#666666" points="440.52,-134.5 294.52,-134.5 294.52,-115.5 440.52,-115.5 440.52,-134.5"/>
<text text-anchor="middle" x="367.52" y="-122.5" font-family="Helvetica,sans-Serif" font-size="10.00">alicat_basis2_modbus.hpp</text>
</a>
</g>
</g>
<!-- Node2&#45;&gt;Node3 -->
<g id="edge2_Node000002_Node000003" class="edge">
<title>Node2&#45;&gt;Node3</title>
<g id="a_edge2_Node000002_Node000003"><a xlink:title=" ">
<path fill="none" stroke="#63b8ff" d="M367.52,-175.87C367.52,-167.75 367.52,-155.31 367.52,-144.89"/>
<polygon fill="#63b8ff" stroke="#63b8ff" points="371.02,-144.67 367.52,-134.67 364.02,-144.67 371.02,-144.67"/>
</a>
</g>
</g>
<!-- Node2&#45;&gt;Node4 -->
<g id="edge19_Node000002_Node000004" class="edge">
<title>Node2&#45;&gt;Node4</title>
<g id="a_edge19_Node000002_Node000004"><a xlink:title=" ">
<path fill="none" stroke="#63b8ff" d="M316.82,-181.46C227.14,-175.56 48.16,-161.25 29.52,-140 2.26,-108.91 18.21,-55.83 29.41,-28.28"/>
<polygon fill="#63b8ff" stroke="#63b8ff" points="32.64,-29.63 33.38,-19.06 26.21,-26.87 32.64,-29.63"/>
</a>
</g>
</g>
<!-- Node5 -->
<g id="Node000005" class="node">
<title>Node5</title>
<g id="a_Node000005"><a xlink:title=" ">
<polygon fill="#e0e0e0" stroke="#999999" points="395.52,-19 345.52,-19 345.52,0 395.52,0 395.52,-19"/>
<text text-anchor="middle" x="370.52" y="-7" font-family="Helvetica,sans-Serif" font-size="10.00">cstdint</text>
</a>
</g>
</g>
<!-- Node2&#45;&gt;Node5 -->
<g id="edge20_Node000002_Node000005" class="edge">
<title>Node2&#45;&gt;Node5</title>
<g id="a_edge20_Node000002_Node000005"><a xlink:title=" ">
<path fill="none" stroke="#63b8ff" d="M411.52,-175.94C436.04,-169.4 465.89,-158.29 487.52,-140 519.13,-113.29 550.42,-88.05 525.52,-55 511.12,-35.88 446.79,-22.45 405.67,-15.64"/>
<polygon fill="#63b8ff" stroke="#63b8ff" points="406.19,-12.17 395.76,-14.05 405.08,-19.09 406.19,-12.17"/>
</a>
</g>
</g>
<!-- Node6 -->
<g id="Node000006" class="node">
<title>Node6</title>
<g id="a_Node000006"><a xlink:title=" ">
<polygon fill="#e0e0e0" stroke="#999999" points="516.02,-74 463.02,-74 463.02,-55 516.02,-55 516.02,-74"/>
<text text-anchor="middle" x="489.52" y="-62" font-family="Helvetica,sans-Serif" font-size="10.00">cstddef</text>
</a>
</g>
</g>
<!-- Node2&#45;&gt;Node6 -->
<g id="edge21_Node000002_Node000006" class="edge">
<title>Node2&#45;&gt;Node6</title>
<g id="a_edge21_Node000002_Node000006"><a xlink:title=" ">
<path fill="none" stroke="#63b8ff" d="M403.63,-175.95C424.34,-169.32 449.36,-158.13 465.52,-140 479.34,-124.51 485.21,-100.98 487.7,-84.52"/>
<polygon fill="#63b8ff" stroke="#63b8ff" points="491.19,-84.79 488.94,-74.44 484.25,-83.94 491.19,-84.79"/>
</a>
</g>
</g>
<!-- Node7 -->
<g id="Node000007" class="node">
<title>Node7</title>
<g id="a_Node000007"><a xlink:href="alicat__basis2__registers_8hpp.html" target="_top" xlink:title="Modbus&#45;RTU holding&#45;register addresses for Alicat BASIS&#45;2.">
<polygon fill="white" stroke="#666666" points="445.02,-74 296.02,-74 296.02,-55 445.02,-55 445.02,-74"/>
<text text-anchor="middle" x="370.52" y="-62" font-family="Helvetica,sans-Serif" font-size="10.00">alicat_basis2_registers.hpp</text>
</a>
</g>
</g>
<!-- Node2&#45;&gt;Node7 -->
<g id="edge12_Node000002_Node000007" class="edge">
<title>Node2&#45;&gt;Node7</title>
<g id="a_edge12_Node000002_Node000007"><a xlink:title=" ">
<path fill="none" stroke="#63b8ff" d="M399.74,-175.92C417.78,-169.29 438.76,-158.09 449.52,-140 456.34,-128.54 456.25,-121.51 449.52,-110 440.84,-95.14 425.17,-84.86 410.06,-77.95"/>
<polygon fill="#63b8ff" stroke="#63b8ff" points="411.37,-74.71 400.79,-74.08 408.67,-81.17 411.37,-74.71"/>
</a>
</g>
</g>
<!-- Node8 -->
<g id="Node000008" class="node">
<title>Node8</title>
<g id="a_Node000008"><a xlink:href="alicat__basis2__types_8hpp.html" target="_top" xlink:title="Public type definitions for the Alicat BASIS&#45;2 driver.">
<polygon fill="white" stroke="#666666" points="240.52,-74 106.52,-74 106.52,-55 240.52,-55 240.52,-74"/>
<text text-anchor="middle" x="173.52" y="-62" font-family="Helvetica,sans-Serif" font-size="10.00">alicat_basis2_types.hpp</text>
</a>
</g>
</g>
<!-- Node2&#45;&gt;Node8 -->
<g id="edge13_Node000002_Node000008" class="edge">
<title>Node2&#45;&gt;Node8</title>
<g id="a_edge13_Node000002_Node000008"><a xlink:title=" ">
<path fill="none" stroke="#63b8ff" d="M349.74,-175.96C332.79,-167.56 306.76,-153.99 285.52,-140 267.56,-128.16 265.22,-122.24 247.52,-110 231.54,-98.95 212.77,-87.68 198.14,-79.25"/>
<polygon fill="#63b8ff" stroke="#63b8ff" points="199.61,-76.06 189.19,-74.15 196.14,-82.14 199.61,-76.06"/>
</a>
</g>
</g>
<!-- Node2&#45;&gt;Node10 -->
<g id="edge14_Node000002_Node000010" class="edge">
<title>Node2&#45;&gt;Node10</title>
<g id="a_edge14_Node000002_Node000010"><a xlink:title=" ">
<path fill="none" stroke="#63b8ff" d="M405.04,-175.99C446.36,-166.63 513.47,-151.41 562.81,-140.22"/>
<polygon fill="#63b8ff" stroke="#63b8ff" points="563.77,-143.59 572.74,-137.97 562.22,-136.77 563.77,-143.59"/>
</a>
</g>
</g>
<!-- Node12 -->
<g id="Node000012" class="node">
<title>Node12</title>
<g id="a_Node000012"><a xlink:title=" ">
<polygon fill="#e0e0e0" stroke="#999999" points="170.02,-134.5 39.02,-134.5 39.02,-115.5 170.02,-115.5 170.02,-134.5"/>
<text text-anchor="middle" x="104.52" y="-122.5" font-family="Helvetica,sans-Serif" font-size="10.00">alicat_basis2_version.h</text>
</a>
</g>
</g>
<!-- Node2&#45;&gt;Node12 -->
<g id="edge18_Node000002_Node000012" class="edge">
<title>Node2&#45;&gt;Node12</title>
<g id="a_edge18_Node000002_Node000012"><a xlink:title=" ">
<path fill="none" stroke="#63b8ff" d="M329.28,-175.99C282.53,-165.6 203.39,-147.99 152.58,-136.69"/>
<polygon fill="#63b8ff" stroke="#63b8ff" points="153.33,-133.27 142.81,-134.52 151.81,-140.1 153.33,-133.27"/>
</a>
</g>
</g>
<!-- Node13 -->
<g id="Node000013" class="node">
<title>Node13</title>
<g id="a_Node000013"><a xlink:title=" ">
<polygon fill="#e0e0e0" stroke="#999999" points="238.52,-134.5 188.52,-134.5 188.52,-115.5 238.52,-115.5 238.52,-134.5"/>
<text text-anchor="middle" x="213.52" y="-122.5" font-family="Helvetica,sans-Serif" font-size="10.00">cstring</text>
</a>
</g>
</g>
<!-- Node2&#45;&gt;Node13 -->
<g id="edge22_Node000002_Node000013" class="edge">
<title>Node2&#45;&gt;Node13</title>
<g id="a_edge22_Node000002_Node000013"><a xlink:title=" ">
<path fill="none" stroke="#63b8ff" d="M345.13,-175.99C318.9,-166.03 275.25,-149.45 245.47,-138.13"/>
<polygon fill="#63b8ff" stroke="#63b8ff" points="246.53,-134.8 235.94,-134.52 244.05,-141.34 246.53,-134.8"/>
</a>
</g>
</g>
<!-- Node3&#45;&gt;Node4 -->
<g id="edge3_Node000003_Node000004" class="edge">
<title>Node3&#45;&gt;Node4</title>
<g id="a_edge3_Node000003_Node000004"><a xlink:title=" ">
<path fill="none" stroke="#63b8ff" d="M294.3,-115.63C226.3,-106.92 130.71,-92.06 97.52,-74 77,-62.83 59.45,-42.11 48.73,-27.38"/>
<polygon fill="#63b8ff" stroke="#63b8ff" points="51.56,-25.32 42.97,-19.12 45.82,-29.33 51.56,-25.32"/>
</a>
</g>
</g>
<!-- Node3&#45;&gt;Node5 -->
<g id="edge4_Node000003_Node000005" class="edge">
<title>Node3&#45;&gt;Node5</title>
<g id="a_edge4_Node000003_Node000005"><a xlink:title=" ">
<path fill="none" stroke="#63b8ff" d="M342.36,-115.43C313.25,-104.04 271.27,-82.15 287.52,-55 298.01,-37.48 318.01,-26.46 335.76,-19.78"/>
<polygon fill="#63b8ff" stroke="#63b8ff" points="336.99,-23.05 345.31,-16.49 334.71,-16.43 336.99,-23.05"/>
</a>
</g>
</g>
<!-- Node3&#45;&gt;Node6 -->
<g id="edge5_Node000003_Node000006" class="edge">
<title>Node3&#45;&gt;Node6</title>
<g id="a_edge5_Node000003_Node000006"><a xlink:title=" ">
<path fill="none" stroke="#63b8ff" d="M385.26,-115.49C405.59,-105.75 439.13,-89.66 462.66,-78.38"/>
<polygon fill="#63b8ff" stroke="#63b8ff" points="464.26,-81.5 471.76,-74.02 461.23,-75.18 464.26,-81.5"/>
</a>
</g>
</g>
<!-- Node3&#45;&gt;Node7 -->
<g id="edge6_Node000003_Node000007" class="edge">
<title>Node3&#45;&gt;Node7</title>
<g id="a_edge6_Node000003_Node000007"><a xlink:title=" ">
<path fill="none" stroke="#63b8ff" d="M367.97,-115.37C368.38,-107.25 369.02,-94.81 369.55,-84.39"/>
<polygon fill="#63b8ff" stroke="#63b8ff" points="373.06,-84.33 370.08,-74.17 366.07,-83.97 373.06,-84.33"/>
</a>
</g>
</g>
<!-- Node3&#45;&gt;Node8 -->
<g id="edge8_Node000003_Node000008" class="edge">
<title>Node3&#45;&gt;Node8</title>
<g id="a_edge8_Node000003_Node000008"><a xlink:title=" ">
<path fill="none" stroke="#63b8ff" d="M339.31,-115.49C305.55,-105.31 248.88,-88.22 211.34,-76.9"/>
<polygon fill="#63b8ff" stroke="#63b8ff" points="212.35,-73.55 201.77,-74.02 210.33,-80.25 212.35,-73.55"/>
</a>
</g>
</g>
<!-- Node7&#45;&gt;Node5 -->
<g id="edge7_Node000007_Node000005" class="edge">
<title>Node7&#45;&gt;Node5</title>
<g id="a_edge7_Node000007_Node000005"><a xlink:title=" ">
<path fill="none" stroke="#63b8ff" d="M370.52,-54.75C370.52,-47.8 370.52,-37.85 370.52,-29.13"/>
<polygon fill="#63b8ff" stroke="#63b8ff" points="374.02,-29.09 370.52,-19.09 367.02,-29.09 374.02,-29.09"/>
</a>
</g>
</g>
<!-- Node8&#45;&gt;Node4 -->
<g id="edge9_Node000008_Node000004" class="edge">
<title>Node8&#45;&gt;Node4</title>
<g id="a_edge9_Node000008_Node000004"><a xlink:title=" ">
<path fill="none" stroke="#63b8ff" d="M151.67,-54.98C129.13,-46.2 93.79,-32.43 68.4,-22.53"/>
<polygon fill="#63b8ff" stroke="#63b8ff" points="69.46,-19.19 58.87,-18.82 66.92,-25.71 69.46,-19.19"/>
</a>
</g>
</g>
<!-- Node8&#45;&gt;Node5 -->
<g id="edge10_Node000008_Node000005" class="edge">
<title>Node8&#45;&gt;Node5</title>
<g id="a_edge10_Node000008_Node000005"><a xlink:title=" ">
<path fill="none" stroke="#63b8ff" d="M205.17,-54.98C240.87,-45.38 298.73,-29.82 335.68,-19.87"/>
<polygon fill="#63b8ff" stroke="#63b8ff" points="336.76,-23.21 345.51,-17.23 334.95,-16.45 336.76,-23.21"/>
</a>
</g>
</g>
<!-- Node9 -->
<g id="Node000009" class="node">
<title>Node9</title>
<g id="a_Node000009"><a xlink:title=" ">
<polygon fill="#e0e0e0" stroke="#999999" points="210.02,-19 137.02,-19 137.02,0 210.02,0 210.02,-19"/>
<text text-anchor="middle" x="173.52" y="-7" font-family="Helvetica,sans-Serif" font-size="10.00">string_view</text>
</a>
</g>
</g>
<!-- Node8&#45;&gt;Node9 -->
<g id="edge11_Node000008_Node000009" class="edge">
<title>Node8&#45;&gt;Node9</title>
<g id="a_edge11_Node000008_Node000009"><a xlink:title=" ">
<path fill="none" stroke="#63b8ff" d="M173.52,-54.75C173.52,-47.8 173.52,-37.85 173.52,-29.13"/>
<polygon fill="#63b8ff" stroke="#63b8ff" points="177.02,-29.09 173.52,-19.09 170.02,-29.09 177.02,-29.09"/>
</a>
</g>
</g>
<!-- Node10&#45;&gt;Node5 -->
<g id="edge15_Node000010_Node000005" class="edge">
<title>Node10&#45;&gt;Node5</title>
<g id="a_edge15_Node000010_Node000005"><a xlink:title=" ">
<path fill="none" stroke="#63b8ff" d="M615.65,-109.77C603.9,-93.93 582.77,-68.76 558.52,-55 510.03,-27.47 445.23,-16.93 405.76,-12.92"/>
<polygon fill="#63b8ff" stroke="#63b8ff" points="405.85,-9.42 395.57,-11.98 405.2,-16.39 405.85,-9.42"/>
</a>
</g>
</g>
<!-- Node10&#45;&gt;Node6 -->
<g id="edge16_Node000010_Node000006" class="edge">
<title>Node10&#45;&gt;Node6</title>
<g id="a_edge16_Node000010_Node000006"><a xlink:title=" ">
<path fill="none" stroke="#63b8ff" d="M592.95,-109.99C570.46,-100.31 540.8,-87.56 519.01,-78.18"/>
<polygon fill="#63b8ff" stroke="#63b8ff" points="520.18,-74.88 509.61,-74.14 517.41,-81.31 520.18,-74.88"/>
</a>
</g>
</g>
<!-- Node11 -->
<g id="Node000011" class="node">
<title>Node11</title>
<g id="a_Node000011"><a xlink:title=" ">
<polygon fill="#e0e0e0" stroke="#999999" points="680.02,-74 611.02,-74 611.02,-55 680.02,-55 680.02,-74"/>
<text text-anchor="middle" x="645.52" y="-62" font-family="Helvetica,sans-Serif" font-size="10.00">type_traits</text>
</a>
</g>
</g>
<!-- Node10&#45;&gt;Node11 -->
<g id="edge17_Node000010_Node000011" class="edge">
<title>Node10&#45;&gt;Node11</title>
<g id="a_edge17_Node000010_Node000011"><a xlink:title=" ">
<path fill="none" stroke="#63b8ff" d="M630.36,-109.84C633.03,-102.04 636.37,-92.27 639.24,-83.89"/>
<polygon fill="#63b8ff" stroke="#63b8ff" points="642.6,-84.86 642.53,-74.27 635.98,-82.6 642.6,-84.86"/>
</a>
</g>
</g>
</g>
</svg>
