<?xml version="1.0" encoding="UTF-8" standalone="no"?>
<!DOCTYPE svg PUBLIC "-//W3C//DTD SVG 1.1//EN"
 "http://www.w3.org/Graphics/SVG/1.1/DTD/svg11.dtd">
<!-- Generated by graphviz version 2.43.0 (0)
 -->
<!-- Title: examples/esp32/main/alicat_basis2_minimal_example.cpp Pages: 1 -->
<svg width="942pt" height="280pt"
 viewBox="0.00 0.00 942.00 280.00" xmlns="http://www.w3.org/2000/svg" xmlns:xlink="http://www.w3.org/1999/xlink">
<g id="graph0" class="graph" transform="scale(1 1) rotate(0) translate(4 276)">
<title>examples/esp32/main/alicat_basis2_minimal_example.cpp</title>
<!-- Node1 -->
<g id="Node000001" class="node">
<title>Node1</title>
<g id="a_Node000001"><a xlink:title=" ">
<polygon fill="#999999" stroke="#666666" points="685.5,-272 556.5,-272 556.5,-231 685.5,-231 685.5,-272"/>
<text text-anchor="start" x="564.5" y="-260" font-family="Helvetica,sans-Serif" font-size="10.00">examples/esp32/main</text>
<text text-anchor="start" x="564.5" y="-249" font-family="Helvetica,sans-Serif" font-size="10.00">/alicat_basis2_minimal</text>
<text text-anchor="middle" x="621" y="-238" font-family="Helvetica,sans-Serif" font-size="10.00">_example.cpp</text>
</a>
</g>
</g>
<!-- Node2 -->
<g id="Node000002" class="node">
<title>Node2</title>
<g id="a_Node000002"><a xlink:href="alicat__basis2_8hpp.html" target="_top" xlink:title="Hardware&#45;agnostic driver for Alicat BASIS&#45;2 mass&#45;flow meters and controllers (B&#45;Series / BC&#45;Series).">
<polygon fill="white" stroke="#666666" points="442.5,-195 341.5,-195 341.5,-176 442.5,-176 442.5,-195"/>
<text text-anchor="middle" x="392" y="-183" font-family="Helvetica,sans-Serif" font-size="10.00">alicat_basis2.hpp</text>
</a>
</g>
</g>
<!-- Node1&#45;&gt;Node2 -->
<g id="edge1_Node000001_Node000002" class="edge">
<title>Node1&#45;&gt;Node2</title>
<g id="a_edge1_Node000001_Node000002"><a xlink:title=" ">
<path fill="none" stroke="#63b8ff" d="M556.3,-232.42C516.45,-221.28 466.61,-207.35 432.34,-197.77"/>
<polygon fill="#63b8ff" stroke="#63b8ff" points="433.24,-194.39 422.67,-195.07 431.36,-201.13 433.24,-194.39"/>
</a>
</g>
</g>
<!-- Node10 -->
<g id="Node000010" class="node">
<title>Node10</title>
<g id="a_Node000010"><a xlink:href="alicat__basis2__uart__interface_8hpp.html" target="_top" xlink:title="CRTP serial transport for the Alicat BASIS&#45;2 driver.">
<polygon fill="white" stroke="#666666" points="611.5,-140 506.5,-140 506.5,-110 611.5,-110 611.5,-140"/>
<text text-anchor="start" x="514.5" y="-128" font-family="Helvetica,sans-Serif" font-size="10.00">alicat_basis2_uart</text>
<text text-anchor="middle" x="559" y="-117" font-family="Helvetica,sans-Serif" font-size="10.00">_interface.hpp</text>
</a>
</g>
</g>
<!-- Node1&#45;&gt;Node10 -->
<g id="edge22_Node000001_Node000010" class="edge">
<title>Node1&#45;&gt;Node10</title>
<g id="a_edge22_Node000001_Node000010"><a xlink:title=" ">
<path fill="none" stroke="#63b8ff" d="M569.46,-230.98C553.98,-222.41 538.79,-210.65 530,-195 521.57,-179.99 529.64,-162.03 539.38,-148.2"/>
<polygon fill="#63b8ff" stroke="#63b8ff" points="542.22,-150.25 545.53,-140.18 536.67,-145.99 542.22,-150.25"/>
</a>
</g>
</g>
<!-- Node13 -->
<g id="Node000013" class="node">
<title>Node13</title>
<g id="a_Node000013"><a xlink:title=" ">
<polygon fill="#e0e0e0" stroke="#999999" points="615.5,-195 538.5,-195 538.5,-176 615.5,-176 615.5,-195"/>
<text text-anchor="middle" x="577" y="-183" font-family="Helvetica,sans-Serif" font-size="10.00">driver/uart.h</text>
</a>
</g>
</g>
<!-- Node1&#45;&gt;Node13 -->
<g id="edge23_Node000001_Node000013" class="edge">
<title>Node1&#45;&gt;Node13</title>
<g id="a_edge23_Node000001_Node000013"><a xlink:title=" ">
<path fill="none" stroke="#63b8ff" d="M607.56,-230.95C601.55,-222.2 594.52,-211.99 588.73,-203.56"/>
<polygon fill="#63b8ff" stroke="#63b8ff" points="591.57,-201.52 583.02,-195.26 585.8,-205.48 591.57,-201.52"/>
</a>
</g>
</g>
<!-- Node14 -->
<g id="Node000014" class="node">
<title>Node14</title>
<g id="a_Node000014"><a xlink:title=" ">
<polygon fill="#e0e0e0" stroke="#999999" points="696.5,-195 633.5,-195 633.5,-176 696.5,-176 696.5,-195"/>
<text text-anchor="middle" x="665" y="-183" font-family="Helvetica,sans-Serif" font-size="10.00">esp_log.h</text>
</a>
</g>
</g>
<!-- Node1&#45;&gt;Node14 -->
<g id="edge24_Node000001_Node000014" class="edge">
<title>Node1&#45;&gt;Node14</title>
<g id="a_edge24_Node000001_Node000014"><a xlink:title=" ">
<path fill="none" stroke="#63b8ff" d="M634.44,-230.95C640.45,-222.2 647.48,-211.99 653.27,-203.56"/>
<polygon fill="#63b8ff" stroke="#63b8ff" points="656.2,-205.48 658.98,-195.26 650.43,-201.52 656.2,-205.48"/>
</a>
</g>
</g>
<!-- Node15 -->
<g id="Node000015" class="node">
<title>Node15</title>
<g id="a_Node000015"><a xlink:title=" ">
<polygon fill="#e0e0e0" stroke="#999999" points="827.5,-195 714.5,-195 714.5,-176 827.5,-176 827.5,-195"/>
<text text-anchor="middle" x="771" y="-183" font-family="Helvetica,sans-Serif" font-size="10.00">freertos/FreeRTOS.h</text>
</a>
</g>
</g>
<!-- Node1&#45;&gt;Node15 -->
<g id="edge25_Node000001_Node000015" class="edge">
<title>Node1&#45;&gt;Node15</title>
<g id="a_edge25_Node000001_Node000015"><a xlink:title=" ">
<path fill="none" stroke="#63b8ff" d="M666.82,-230.95C691.07,-220.6 720.13,-208.2 741.4,-199.13"/>
<polygon fill="#63b8ff" stroke="#63b8ff" points="743.04,-202.24 750.86,-195.09 740.29,-195.8 743.04,-202.24"/>
</a>
</g>
</g>
<!-- Node16 -->
<g id="Node000016" class="node">
<title>Node16</title>
<g id="a_Node000016"><a xlink:title=" ">
<polygon fill="#e0e0e0" stroke="#999999" points="934,-195 846,-195 846,-176 934,-176 934,-195"/>
<text text-anchor="middle" x="890" y="-183" font-family="Helvetica,sans-Serif" font-size="10.00">freertos/task.h</text>
</a>
</g>
</g>
<!-- Node1&#45;&gt;Node16 -->
<g id="edge26_Node000001_Node000016" class="edge">
<title>Node1&#45;&gt;Node16</title>
<g id="a_edge26_Node000001_Node000016"><a xlink:title=" ">
<path fill="none" stroke="#63b8ff" d="M685.77,-235.09C734.81,-223.42 800.94,-207.69 844.49,-197.33"/>
<polygon fill="#63b8ff" stroke="#63b8ff" points="845.32,-200.73 854.24,-195.01 843.7,-193.92 845.32,-200.73"/>
</a>
</g>
</g>
<!-- Node3 -->
<g id="Node000003" class="node">
<title>Node3</title>
<g id="a_Node000003"><a xlink:href="alicat__basis2__modbus_8hpp.html" target="_top" xlink:title="Modbus&#45;RTU framing and CRC&#45;16 helpers used by the BASIS&#45;2 driver.">
<polygon fill="white" stroke="#666666" points="294,-134.5 148,-134.5 148,-115.5 294,-115.5 294,-134.5"/>
<text text-anchor="middle" x="221" y="-122.5" font-family="Helvetica,sans-Serif" font-size="10.00">alicat_basis2_modbus.hpp</text>
</a>
</g>
</g>
<!-- Node2&#45;&gt;Node3 -->
<g id="edge2_Node000002_Node000003" class="edge">
<title>Node2&#45;&gt;Node3</title>
<g id="a_edge2_Node000002_Node000003"><a xlink:title=" ">
<path fill="none" stroke="#63b8ff" d="M367.14,-175.99C337.75,-165.94 288.69,-149.16 255.61,-137.84"/>
<polygon fill="#63b8ff" stroke="#63b8ff" points="256.49,-134.44 245.89,-134.52 254.22,-141.07 256.49,-134.44"/>
</a>
</g>
</g>
<!-- Node4 -->
<g id="Node000004" class="node">
<title>Node4</title>
<g id="a_Node000004"><a xlink:title=" ">
<polygon fill="#e0e0e0" stroke="#999999" points="42,-19 0,-19 0,0 42,0 42,-19"/>
<text text-anchor="middle" x="21" y="-7" font-family="Helvetica,sans-Serif" font-size="10.00">array</text>
</a>
</g>
</g>
<!-- Node2&#45;&gt;Node4 -->
<g id="edge18_Node000002_Node000004" class="edge">
<title>Node2&#45;&gt;Node4</title>
<g id="a_edge18_Node000002_Node000004"><a xlink:title=" ">
<path fill="none" stroke="#63b8ff" d="M341.41,-183.11C284.97,-180.02 191.91,-170.3 118,-140 71.1,-120.77 49.67,-118.28 25,-74 17.52,-60.57 16.99,-42.96 18.07,-29.7"/>
<polygon fill="#63b8ff" stroke="#63b8ff" points="21.59,-29.72 19.29,-19.37 14.64,-28.89 21.59,-29.72"/>
</a>
</g>
</g>
<!-- Node5 -->
<g id="Node000005" class="node">
<title>Node5</title>
<g id="a_Node000005"><a xlink:title=" ">
<polygon fill="#e0e0e0" stroke="#999999" points="338,-19 288,-19 288,0 338,0 338,-19"/>
<text text-anchor="middle" x="313" y="-7" font-family="Helvetica,sans-Serif" font-size="10.00">cstdint</text>
</a>
</g>
</g>
<!-- Node2&#45;&gt;Node5 -->
<g id="edge19_Node000002_Node000005" class="edge">
<title>Node2&#45;&gt;Node5</title>
<g id="a_edge19_Node000002_Node000005"><a xlink:title=" ">
<path fill="none" stroke="#63b8ff" d="M404.09,-175.9C432.74,-154.49 500,-97.48 468,-55 453.6,-35.88 389.27,-22.45 348.15,-15.64"/>
<polygon fill="#63b8ff" stroke="#63b8ff" points="348.66,-12.17 338.24,-14.05 347.56,-19.09 348.66,-12.17"/>
</a>
</g>
</g>
<!-- Node6 -->
<g id="Node000006" class="node">
<title>Node6</title>
<g id="a_Node000006"><a xlink:title=" ">
<polygon fill="#e0e0e0" stroke="#999999" points="458.5,-74 405.5,-74 405.5,-55 458.5,-55 458.5,-74"/>
<text text-anchor="middle" x="432" y="-62" font-family="Helvetica,sans-Serif" font-size="10.00">cstddef</text>
</a>
</g>
</g>
<!-- Node2&#45;&gt;Node6 -->
<g id="edge20_Node000002_Node000006" class="edge">
<title>Node2&#45;&gt;Node6</title>
<g id="a_edge20_Node000002_Node000006"><a xlink:title=" ">
<path fill="none" stroke="#63b8ff" d="M394.88,-175.94C401.3,-156.82 416.95,-110.27 425.74,-84.12"/>
<polygon fill="#63b8ff" stroke="#63b8ff" points="429.17,-84.9 429.04,-74.3 422.54,-82.67 429.17,-84.9"/>
</a>
</g>
</g>
<!-- Node7 -->
<g id="Node000007" class="node">
<title>Node7</title>
<g id="a_Node000007"><a xlink:href="alicat__basis2__registers_8hpp.html" target="_top" xlink:title="Modbus&#45;RTU holding&#45;register addresses for Alicat BASIS&#45;2.">
<polygon fill="white" stroke="#666666" points="387.5,-74 238.5,-74 238.5,-55 387.5,-55 387.5,-74"/>
<text text-anchor="middle" x="313" y="-62" font-family="Helvetica,sans-Serif" font-size="10.00">alicat_basis2_registers.hpp</text>
</a>
</g>
</g>
<!-- Node2&#45;&gt;Node7 -->
<g id="edge12_Node000002_Node000007" class="edge">
<title>Node2&#45;&gt;Node7</title>
<g id="a_edge12_Node000002_Node000007"><a xlink:title=" ">
<path fill="none" stroke="#63b8ff" d="M391.65,-175.93C390.68,-161.25 386.99,-130.84 373,-110 364.48,-97.3 351.07,-86.86 339.09,-79.29"/>
<polygon fill="#63b8ff" stroke="#63b8ff" points="340.7,-76.17 330.31,-74.07 337.12,-82.19 340.7,-76.17"/>
</a>
</g>
</g>
<!-- Node8 -->
<g id="Node000008" class="node">
<title>Node8</title>
<g id="a_Node000008"><a xlink:href="alicat__basis2__types_8hpp.html" target="_top" xlink:title="Public type definitions for the Alicat BASIS&#45;2 driver.">
<polygon fill="white" stroke="#666666" points="183,-74 49,-74 49,-55 183,-55 183,-74"/>
<text text-anchor="middle" x="116" y="-62" font-family="Helvetica,sans-Serif" font-size="10.00">alicat_basis2_types.hpp</text>
</a>
</g>
</g>
<!-- Node2&#45;&gt;Node8 -->
<g id="edge13_Node000002_Node000008" class="edge">
<title>Node2&#45;&gt;Node8</title>
<g id="a_edge13_Node000002_Node000008"><a xlink:title=" ">
<path fill="none" stroke="#63b8ff" d="M341.39,-181.75C276.36,-177.19 168.35,-165.89 139,-140 123.24,-126.11 118.14,-101.68 116.56,-84.6"/>
<polygon fill="#63b8ff" stroke="#63b8ff" points="120.03,-83.94 115.95,-74.16 113.04,-84.35 120.03,-83.94"/>
</a>
</g>
</g>
<!-- Node2&#45;&gt;Node10 -->
<g id="edge14_Node000002_Node000010" class="edge">
<title>Node2&#45;&gt;Node10</title>
<g id="a_edge14_Node000002_Node000010"><a xlink:title=" ">
<path fill="none" stroke="#63b8ff" d="M416.28,-175.99C440.53,-167.5 478.49,-154.2 509.17,-143.45"/>
<polygon fill="#63b8ff" stroke="#63b8ff" points="510.57,-146.67 518.85,-140.06 508.26,-140.07 510.57,-146.67"/>
</a>
</g>
</g>
<!-- Node12 -->
<g id="Node000012" class="node">
<title>Node12</title>
<g id="a_Node000012"><a xlink:title=" ">
<polygon fill="#e0e0e0" stroke="#999999" points="364,-134.5 314,-134.5 314,-115.5 364,-115.5 364,-134.5"/>
<text text-anchor="middle" x="339" y="-122.5" font-family="Helvetica,sans-Serif" font-size="10.00">cstring</text>
</a>
</g>
</g>
<!-- Node2&#45;&gt;Node12 -->
<g id="edge21_Node000002_Node000012" class="edge">
<title>Node2&#45;&gt;Node12</title>
<g id="a_edge21_Node000002_Node000012"><a xlink:title=" ">
<path fill="none" stroke="#63b8ff" d="M384.18,-175.87C376.19,-167.05 363.61,-153.16 353.74,-142.27"/>
<polygon fill="#63b8ff" stroke="#63b8ff" points="356.16,-139.73 346.85,-134.67 350.97,-144.43 356.16,-139.73"/>
</a>
</g>
</g>
<!-- Node3&#45;&gt;Node4 -->
<g id="edge3_Node000003_Node000004" class="edge">
<title>Node3&#45;&gt;Node4</title>
<g id="a_edge3_Node000003_Node000004"><a xlink:title=" ">
<path fill="none" stroke="#63b8ff" d="M147.95,-120.18C111.21,-114.59 68.54,-101.94 40,-74 28.06,-62.31 23.55,-43.46 21.89,-29.32"/>
<polygon fill="#63b8ff" stroke="#63b8ff" points="25.37,-28.91 21.07,-19.23 18.39,-29.48 25.37,-28.91"/>
</a>
</g>
</g>
<!-- Node3&#45;&gt;Node5 -->
<g id="edge4_Node000003_Node000005" class="edge">
<title>Node3&#45;&gt;Node5</title>
<g id="a_edge4_Node000003_Node000005"><a xlink:title=" ">
<path fill="none" stroke="#63b8ff" d="M219.79,-115.49C218.27,-101.54 217.24,-73.49 230,-55 241.34,-38.58 260.73,-27.7 277.92,-20.81"/>
<polygon fill="#63b8ff" stroke="#63b8ff" points="279.53,-23.95 287.71,-17.21 277.11,-17.38 279.53,-23.95"/>
</a>
</g>
</g>
<!-- Node3&#45;&gt;Node6 -->
<g id="edge5_Node000003_Node000006" class="edge">
<title>Node3&#45;&gt;Node6</title>
<g id="a_edge5_Node000003_Node000006"><a xlink:title=" ">
<path fill="none" stroke="#63b8ff" d="M251.68,-115.49C289.82,-104.92 354.85,-86.89 395.51,-75.62"/>
<polygon fill="#63b8ff" stroke="#63b8ff" points="396.59,-78.95 405.29,-72.9 394.72,-72.2 396.59,-78.95"/>
</a>
</g>
</g>
<!-- Node3&#45;&gt;Node7 -->
<g id="edge6_Node000003_Node000007" class="edge">
<title>Node3&#45;&gt;Node7</title>
<g id="a_edge6_Node000003_Node000007"><a xlink:title=" ">
<path fill="none" stroke="#63b8ff" d="M234.57,-115.37C249.39,-105.95 273.33,-90.73 290.86,-79.58"/>
<polygon fill="#63b8ff" stroke="#63b8ff" points="292.81,-82.49 299.37,-74.17 289.05,-76.58 292.81,-82.49"/>
</a>
</g>
</g>
<!-- Node3&#45;&gt;Node8 -->
<g id="edge8_Node000003_Node000008" class="edge">
<title>Node3&#45;&gt;Node8</title>
<g id="a_edge8_Node000003_Node000008"><a xlink:title=" ">
<path fill="none" stroke="#63b8ff" d="M205.51,-115.37C188.37,-105.82 160.53,-90.31 140.44,-79.12"/>
<polygon fill="#63b8ff" stroke="#63b8ff" points="142,-75.98 131.56,-74.17 138.59,-82.09 142,-75.98"/>
</a>
</g>
</g>
<!-- Node7&#45;&gt;Node5 -->
<g id="edge7_Node000007_Node000005" class="edge">
<title>Node7&#45;&gt;Node5</title>
<g id="a_edge7_Node000007_Node000005"><a xlink:title=" ">
<path fill="none" stroke="#63b8ff" d="M313,-54.75C313,-47.8 313,-37.85 313,-29.13"/>
<polygon fill="#63b8ff" stroke="#63b8ff" points="316.5,-29.09 313,-19.09 309.5,-29.09 316.5,-29.09"/>
</a>
</g>
</g>
<!-- Node8&#45;&gt;Node4 -->
<g id="edge9_Node000008_Node000004" class="edge">
<title>Node8&#45;&gt;Node4</title>
<g id="a_edge9_Node000008_Node000004"><a xlink:title=" ">
<path fill="none" stroke="#63b8ff" d="M100.74,-54.98C85.87,-46.69 63.02,-33.94 45.58,-24.22"/>
<polygon fill="#63b8ff" stroke="#63b8ff" points="46.98,-20.99 36.54,-19.17 43.57,-27.1 46.98,-20.99"/>
</a>
</g>
</g>
<!-- Node8&#45;&gt;Node5 -->
<g id="edge10_Node000008_Node000005" class="edge">
<title>Node8&#45;&gt;Node5</title>
<g id="a_edge10_Node000008_Node000005"><a xlink:title=" ">
<path fill="none" stroke="#63b8ff" d="M147.65,-54.98C183.34,-45.38 241.2,-29.82 278.16,-19.87"/>
<polygon fill="#63b8ff" stroke="#63b8ff" points="279.24,-23.21 287.99,-17.23 277.42,-16.45 279.24,-23.21"/>
</a>
</g>
</g>
<!-- Node9 -->
<g id="Node000009" class="node">
<title>Node9</title>
<g id="a_Node000009"><a xlink:title=" ">
<polygon fill="#e0e0e0" stroke="#999999" points="152.5,-19 79.5,-19 79.5,0 152.5,0 152.5,-19"/>
<text text-anchor="middle" x="116" y="-7" font-family="Helvetica,sans-Serif" font-size="10.00">string_view</text>
</a>
</g>
</g>
<!-- Node8&#45;&gt;Node9 -->
<g id="edge11_Node000008_Node000009" class="edge">
<title>Node8&#45;&gt;Node9</title>
<g id="a_edge11_Node000008_Node000009"><a xlink:title=" ">
<path fill="none" stroke="#63b8ff" d="M116,-54.75C116,-47.8 116,-37.85 116,-29.13"/>
<polygon fill="#63b8ff" stroke="#63b8ff" points="119.5,-29.09 116,-19.09 112.5,-29.09 119.5,-29.09"/>
</a>
</g>
</g>
<!-- Node10&#45;&gt;Node5 -->
<g id="edge15_Node000010_Node000005" class="edge">
<title>Node10&#45;&gt;Node5</title>
<g id="a_edge15_Node000010_Node000005"><a xlink:title=" ">
<path fill="none" stroke="#63b8ff" d="M550.91,-109.75C541.15,-93.89 523.25,-68.71 501,-55 453.29,-25.61 387.78,-15.63 348.03,-12.24"/>
<polygon fill="#63b8ff" stroke="#63b8ff" points="348.25,-8.75 338.02,-11.48 347.72,-15.73 348.25,-8.75"/>
</a>
</g>
</g>
<!-- Node10&#45;&gt;Node6 -->
<g id="edge16_Node000010_Node000006" class="edge">
<title>Node10&#45;&gt;Node6</title>
<g id="a_edge16_Node000010_Node000006"><a xlink:title=" ">
<path fill="none" stroke="#63b8ff" d="M528.58,-109.99C507.77,-100.4 480.38,-87.79 460.09,-78.44"/>
<polygon fill="#63b8ff" stroke="#63b8ff" points="461.3,-75.14 450.76,-74.14 458.37,-81.5 461.3,-75.14"/>
</a>
</g>
</g>
<!-- Node11 -->
<g id="Node000011" class="node">
<title>Node11</title>
<g id="a_Node000011"><a xlink:title=" ">
<polygon fill="#e0e0e0" stroke="#999999" points="622.5,-74 553.5,-74 553.5,-55 622.5,-55 622.5,-74"/>
<text text-anchor="middle" x="588" y="-62" font-family="Helvetica,sans-Serif" font-size="10.00">type_traits</text>
</a>
</g>
</g>
<!-- Node10&#45;&gt;Node11 -->
<g id="edge17_Node000010_Node000011" class="edge">
<title>Node10&#45;&gt;Node11</title>
<g id="a_edge17_Node000010_Node000011"><a xlink:title=" ">
<path fill="none" stroke="#63b8ff" d="M566.02,-109.84C569.97,-101.87 574.94,-91.84 579.16,-83.33"/>
<polygon fill="#63b8ff" stroke="#63b8ff" points="582.35,-84.78 583.65,-74.27 576.08,-81.67 582.35,-84.78"/>
</a>
</g>
</g>
</g>
</svg>
