<?xml version="1.0" encoding="UTF-8" standalone="no"?>
<!DOCTYPE svg PUBLIC "-//W3C//DTD SVG 1.1//EN"
 "http://www.w3.org/Graphics/SVG/1.1/DTD/svg11.dtd">
<!-- Generated by graphviz version 2.43.0 (0)
 -->
<!-- Title: inc/alicat_basis2_modbus.hpp Pages: 1 -->
<svg width="458pt" height="137pt"
 viewBox="0.00 0.00 457.50 137.00" xmlns="http://www.w3.org/2000/svg" xmlns:xlink="http://www.w3.org/1999/xlink">
<g id="graph0" class="graph" transform="scale(1 1) rotate(0) translate(4 133)">
<title>inc/alicat_basis2_modbus.hpp</title>
<!-- Node1 -->
<g id="Node000001" class="node">
<title>Node1</title>
<g id="a_Node000001"><a xlink:title="Modbus&#45;RTU framing and CRC&#45;16 helpers used by the BASIS&#45;2 driver.">
<polygon fill="#999999" stroke="#666666" points="299.5,-129 136.5,-129 136.5,-110 299.5,-110 299.5,-129"/>
<text text-anchor="middle" x="218" y="-117" font-family="Helvetica,sans-Serif" font-size="10.00">inc/alicat_basis2_modbus.hpp</text>
</a>
</g>
</g>
<!-- Node2 -->
<g id="Node000002" class="node">
<title>Node2</title>
<g id="a_Node000002"><a xlink:title=" ">
<polygon fill="#e0e0e0" stroke="#999999" points="42,-19 0,-19 0,0 42,0 42,-19"/>
<text text-anchor="middle" x="21" y="-7" font-family="Helvetica,sans-Serif" font-size="10.00">array</text>
</a>
</g>
</g>
<!-- Node1&#45;&gt;Node2 -->
<g id="edge1_Node000001_Node000002" class="edge">
<title>Node1&#45;&gt;Node2</title>
<g id="a_edge1_Node000001_Node000002"><a xlink:title=" ">
<path fill="none" stroke="#63b8ff" d="M146.43,-109.98C100.18,-102.94 45.77,-91.28 30,-74 19.1,-62.06 17.67,-43.24 18.47,-29.18"/>
<polygon fill="#63b8ff" stroke="#63b8ff" points="21.97,-29.45 19.46,-19.15 15,-28.76 21.97,-29.45"/>
</a>
</g>
</g>
<!-- Node3 -->
<g id="Node000003" class="node">
<title>Node3</title>
<g id="a_Node000003"><a xlink:title=" ">
<polygon fill="#e0e0e0" stroke="#999999" points="298,-19 248,-19 248,0 298,0 298,-19"/>
<text text-anchor="middle" x="273" y="-7" font-family="Helvetica,sans-Serif" font-size="10.00">cstdint</text>
</a>
</g>
</g>
<!-- Node1&#45;&gt;Node3 -->
<g id="edge2_Node000001_Node000003" class="edge">
<title>Node1&#45;&gt;Node3</title>
<g id="a_edge2_Node000001_Node000003"><a xlink:title=" ">
<path fill="none" stroke="#63b8ff" d="M226.27,-109.97C234.12,-101.47 245.75,-87.73 253,-74 260.51,-59.77 265.77,-42.24 269,-29.2"/>
<polygon fill="#63b8ff" stroke="#63b8ff" points="272.49,-29.63 271.33,-19.1 265.67,-28.06 272.49,-29.63"/>
</a>
</g>
</g>
<!-- Node4 -->
<g id="Node000004" class="node">
<title>Node4</title>
<g id="a_Node000004"><a xlink:title=" ">
<polygon fill="#e0e0e0" stroke="#999999" points="244.5,-74 191.5,-74 191.5,-55 244.5,-55 244.5,-74"/>
<text text-anchor="middle" x="218" y="-62" font-family="Helvetica,sans-Serif" font-size="10.00">cstddef</text>
</a>
</g>
</g>
<!-- Node1&#45;&gt;Node4 -->
<g id="edge3_Node000001_Node000004" class="edge">
<title>Node1&#45;&gt;Node4</title>
<g id="a_edge3_Node000001_Node000004"><a xlink:title=" ">
<path fill="none" stroke="#63b8ff" d="M218,-109.75C218,-102.8 218,-92.85 218,-84.13"/>
<polygon fill="#63b8ff" stroke="#63b8ff" points="221.5,-84.09 218,-74.09 214.5,-84.09 221.5,-84.09"/>
</a>
</g>
</g>
<!-- Node5 -->
<g id="Node000005" class="node">
<title>Node5</title>
<g id="a_Node000005"><a xlink:href="alicat__basis2__registers_8hpp.html" target="_top" xlink:title="Modbus&#45;RTU holding&#45;register addresses for Alicat BASIS&#45;2.">
<polygon fill="white" stroke="#666666" points="449.5,-74 300.5,-74 300.5,-55 449.5,-55 449.5,-74"/>
<text text-anchor="middle" x="375" y="-62" font-family="Helvetica,sans-Serif" font-size="10.00">alicat_basis2_registers.hpp</text>
</a>
</g>
</g>
<!-- Node1&#45;&gt;Node5 -->
<g id="edge4_Node000001_Node000005" class="edge">
<title>Node1&#45;&gt;Node5</title>
<g id="a_edge4_Node000001_Node000005"><a xlink:title=" ">
<path fill="none" stroke="#63b8ff" d="M243.22,-109.98C269.36,-101.16 310.4,-87.31 339.73,-77.41"/>
<polygon fill="#63b8ff" stroke="#63b8ff" points="341.22,-80.6 349.58,-74.08 338.98,-73.96 341.22,-80.6"/>
</a>
</g>
</g>
<!-- Node6 -->
<g id="Node000006" class="node">
<title>Node6</title>
<g id="a_Node000006"><a xlink:href="alicat__basis2__types_8hpp.html" target="_top" xlink:title="Public type definitions for the Alicat BASIS&#45;2 driver.">
<polygon fill="white" stroke="#666666" points="173,-74 39,-74 39,-55 173,-55 173,-74"/>
<text text-anchor="middle" x="106" y="-62" font-family="Helvetica,sans-Serif" font-size="10.00">alicat_basis2_types.hpp</text>
</a>
</g>
</g>
<!-- Node1&#45;&gt;Node6 -->
<g id="edge6_Node000001_Node000006" class="edge">
<title>Node1&#45;&gt;Node6</title>
<g id="a_edge6_Node000001_Node000006"><a xlink:title=" ">
<path fill="none" stroke="#63b8ff" d="M200.01,-109.98C182.07,-101.5 154.28,-88.35 133.57,-78.54"/>
<polygon fill="#63b8ff" stroke="#63b8ff" points="134.86,-75.28 124.32,-74.17 131.86,-81.61 134.86,-75.28"/>
</a>
</g>
</g>
<!-- Node5&#45;&gt;Node3 -->
<g id="edge5_Node000005_Node000003" class="edge">
<title>Node5&#45;&gt;Node3</title>
<g id="a_edge5_Node000005_Node000003"><a xlink:title=" ">
<path fill="none" stroke="#63b8ff" d="M358.61,-54.98C342.43,-46.57 317.43,-33.59 298.62,-23.81"/>
<polygon fill="#63b8ff" stroke="#63b8ff" points="300.17,-20.68 289.69,-19.17 296.95,-26.89 300.17,-20.68"/>
</a>
</g>
</g>
<!-- Node6&#45;&gt;Node2 -->
<g id="edge7_Node000006_Node000002" class="edge">
<title>Node6&#45;&gt;Node2</title>
<g id="a_edge7_Node000006_Node000002"><a xlink:title=" ">
<path fill="none" stroke="#63b8ff" d="M92.34,-54.98C79.16,-46.77 58.97,-34.18 43.43,-24.49"/>
<polygon fill="#63b8ff" stroke="#63b8ff" points="45.24,-21.49 34.91,-19.17 41.54,-27.43 45.24,-21.49"/>
</a>
</g>
</g>
<!-- Node6&#45;&gt;Node3 -->
<g id="edge8_Node000006_Node000003" class="edge">
<title>Node6&#45;&gt;Node3</title>
<g id="a_edge8_Node000006_Node000003"><a xlink:title=" ">
<path fill="none" stroke="#63b8ff" d="M132.83,-54.98C161.45,-45.9 206.89,-31.48 238.23,-21.53"/>
<polygon fill="#63b8ff" stroke="#63b8ff" points="239.4,-24.84 247.87,-18.47 237.28,-18.16 239.4,-24.84"/>
</a>
</g>
</g>
<!-- Node7 -->
<g id="Node000007" class="node">
<title>Node7</title>
<g id="a_Node000007"><a xlink:title=" ">
<polygon fill="#e0e0e0" stroke="#999999" points="142.5,-19 69.5,-19 69.5,0 142.5,0 142.5,-19"/>
<text text-anchor="middle" x="106" y="-7" font-family="Helvetica,sans-Serif" font-size="10.00">string_view</text>
</a>
</g>
</g>
<!-- Node6&#45;&gt;Node7 -->
<g id="edge9_Node000006_Node000007" class="edge">
<title>Node6&#45;&gt;Node7</title>
<g id="a_edge9_Node000006_Node000007"><a xlink:title=" ">
<path fill="none" stroke="#63b8ff" d="M106,-54.75C106,-47.8 106,-37.85 106,-29.13"/>
<polygon fill="#63b8ff" stroke="#63b8ff" points="109.5,-29.09 106,-19.09 102.5,-29.09 109.5,-29.09"/>
</a>
</g>
</g>
</g>
</svg>
