<?xml version="1.0" encoding="UTF-8"?>
<svg xmlns="http://www.w3.org/2000/svg" viewBox="0 0 940 500" width="940" height="500"
     role="img" aria-labelledby="t-bw d-bw">
  <title id="t-bw">Alicat BASIS-2 &#8212; RS-485 multidrop wiring (ESP32 reference)</title>
  <desc id="d-bw">Wiring diagram showing ESP32 UART connected via RS-485 transceiver to a multidrop bus with multiple BASIS-2 mass flow controllers.</desc>
  <defs>
    <style type="text/css"><![CDATA[
      .panel    { fill: #ffffff; }
      .box      { fill: #f4f6f8; stroke: #1a365d; stroke-width: 2; }
      .xcvr     { fill: #ebf4ff; stroke: #2c5282; stroke-width: 2; }
      .instr    { fill: #fef5e7; stroke: #c05621; stroke-width: 2; }
      .wire-pwr { stroke: #c53030; stroke-width: 2.5; fill: none; stroke-linecap: round; }
      .wire-gnd { stroke: #4a5568; stroke-width: 2.5; fill: none; stroke-linecap: round; }
      .wire-uart{ stroke: #276749; stroke-width: 2.5; fill: none; stroke-linecap: round; }
      .wire-rs485{stroke: #2b6cb0; stroke-width: 3; fill: none; stroke-linecap: round; }
      .wire-ctrl{ stroke: #d69e2e; stroke-width: 2; fill: none; stroke-linecap: round; stroke-dasharray: 5 3; }
      .term     { fill: #fff5f5; stroke: #c53030; stroke-width: 1.5; }
      .head     { font-family: system-ui, sans-serif; font-size: 16px; font-weight: 600; fill: #1a365d; text-anchor: middle; }
      .title    { font-family: system-ui, sans-serif; font-size: 13px; font-weight: 600; fill: #1a365d; text-anchor: middle; }
      .titleL   { font-family: system-ui, sans-serif; font-size: 13px; font-weight: 600; fill: #1a365d; text-anchor: start; }
      .small    { font-family: system-ui, sans-serif; font-size: 11px; fill: #4a5568; text-anchor: middle; }
      .smallL   { font-family: system-ui, sans-serif; font-size: 11px; fill: #4a5568; text-anchor: start; }
      .pinL     { font-family: "DejaVu Sans Mono", Consolas, monospace; font-size: 12px; fill: #1a202c; text-anchor: start; }
      .pinR     { font-family: "DejaVu Sans Mono", Consolas, monospace; font-size: 12px; fill: #1a202c; text-anchor: end; }
      .legend   { font-family: system-ui, sans-serif; font-size: 11px; fill: #4a5568; }
    ]]></style>
    <marker id="ar-grn" markerWidth="8" markerHeight="8" refX="6" refY="3" orient="auto">
      <path d="M0,0 L6,3 L0,6 z" fill="#276749"/>
    </marker>
    <marker id="ar-grn-rev" markerWidth="8" markerHeight="8" refX="0" refY="3" orient="auto">
      <path d="M6,0 L0,3 L6,6 z" fill="#276749"/>
    </marker>
    <marker id="ar-blu" markerWidth="8" markerHeight="8" refX="6" refY="3" orient="auto">
      <path d="M0,0 L6,3 L0,6 z" fill="#2b6cb0"/>
    </marker>
  </defs>

  <!-- Background -->
  <rect class="panel" width="940" height="500"/>

  <!-- Title -->
  <text class="head" x="470" y="26">Alicat BASIS-2 &#8212; RS-485 multidrop wiring (ESP32 reference)</text>

  <!-- ===== LEFT COLUMN: ESP32 MCU ===== -->
  <rect class="box" x="30" y="60" width="160" height="200" rx="8"/>
  <text class="title" x="110" y="82">ESP32-S3 MCU</text>

  <text class="pinL" x="42" y="116">TX   GPIO17</text>
  <text class="pinL" x="42" y="142">RX   GPIO18</text>
  <text class="pinL" x="42" y="168">RTS  GPIO8</text>
  <text class="pinL" x="42" y="206">GND</text>
  <text class="pinL" x="42" y="232">3V3</text>

  <!-- Pin dots on right edge of MCU box -->
  <circle cx="190" cy="112" r="3" fill="#276749"/>
  <circle cx="190" cy="138" r="3" fill="#276749"/>
  <circle cx="190" cy="164" r="3" fill="#d69e2e"/>
  <circle cx="190" cy="202" r="3" fill="#4a5568"/>
  <circle cx="190" cy="228" r="3" fill="#c53030"/>

  <!-- ===== CENTER COLUMN: RS-485 Transceiver ===== -->
  <rect class="xcvr" x="310" y="60" width="160" height="200" rx="8"/>
  <text class="title" x="390" y="82">RS-485 Transceiver</text>
  <text class="small" x="390" y="96">(MAX485 / SN65HVD11)</text>

  <!-- Left-side pins (UART facing) -->
  <text class="pinL" x="318" y="130">DI</text>
  <text class="pinL" x="318" y="156">RO</text>
  <text class="pinL" x="318" y="182">DE+RE</text>

  <!-- Right-side pins (bus facing) -->
  <text class="pinL" x="458" y="130">A</text>
  <text class="pinL" x="458" y="156">B</text>

  <!-- Bottom pins -->
  <text class="pinR" x="352" y="232">GND</text>
  <text class="pinL" x="428" y="232">VCC</text>

  <!-- Pin dots on left edge of transceiver -->
  <circle cx="310" cy="126" r="3" fill="#276749"/>
  <circle cx="310" cy="152" r="3" fill="#276749"/>
  <circle cx="310" cy="178" r="3" fill="#d69e2e"/>

  <!-- Pin dots on right edge of transceiver -->
  <circle cx="470" cy="126" r="3" fill="#2b6cb0"/>
  <circle cx="470" cy="152" r="3" fill="#2b6cb0"/>

  <!-- Pin dots on bottom of transceiver -->
  <circle cx="352" cy="240" r="3" fill="#4a5568"/>
  <circle cx="428" cy="240" r="3" fill="#c53030"/>

  <!-- ===== UART wires (green): MCU -> Transceiver ===== -->
  <!-- TX -> DI -->
  <line class="wire-uart" x1="190" y1="112" x2="310" y2="126" marker-end="url(#ar-grn)"/>
  <text class="smallL" x="230" y="108">TX</text>

  <!-- RO -> RX -->
  <line class="wire-uart" x1="310" y1="152" x2="190" y2="138" marker-end="url(#ar-grn)"/>
  <text class="smallL" x="230" y="152">RX</text>

  <!-- RTS -> DE+RE (control wire, dashed yellow) -->
  <line class="wire-ctrl" x1="190" y1="164" x2="310" y2="178"/>
  <text class="smallL" x="224" y="178">RTS</text>

  <!-- GND wire: MCU GND -> Transceiver GND -->
  <polyline class="wire-gnd" points="190,202 272,202 272,240 352,240"/>

  <!-- 3V3 wire: MCU 3V3 -> Transceiver VCC -->
  <polyline class="wire-pwr" points="190,228 280,228 280,248 428,248 428,240"/>

  <!-- ===== RIGHT COLUMN: RS-485 Bus ===== -->

  <!-- Bus trunk line (thick blue horizontal) at y=126 for A and y=152 for B -->
  <!-- Transceiver A/B to bus -->
  <line class="wire-rs485" x1="470" y1="126" x2="530" y2="126"/>
  <line class="wire-rs485" x1="470" y1="152" x2="530" y2="152"/>

  <!-- Bus A trunk -->
  <line class="wire-rs485" x1="530" y1="126" x2="882" y2="126"/>
  <!-- Bus B trunk -->
  <line class="wire-rs485" x1="530" y1="152" x2="882" y2="152"/>

  <!-- Bus labels -->
  <text class="pinL" x="504" y="120">A</text>
  <text class="pinL" x="504" y="168">B</text>

  <!-- Left termination resistor (at transceiver end) -->
  <rect class="term" x="518" y="130" width="24" height="18" rx="3"/>
  <text class="small" x="530" y="144">120&#937;</text>

  <!-- Right termination resistor (far end) -->
  <rect class="term" x="870" y="130" width="24" height="18" rx="3"/>
  <text class="small" x="882" y="144">120&#937;</text>

  <!-- ===== 12-24V Power rail ===== -->
  <line class="wire-pwr" x1="560" y1="72" x2="880" y2="72"/>
  <text class="titleL" x="560" y="66">12&#8211;24 VDC</text>

  <!-- ===== GND rail for instruments ===== -->
  <line class="wire-gnd" x1="560" y1="86" x2="880" y2="86"/>
  <text class="smallL" x="560" y="98">GND</text>

  <!-- ===== BASIS-2 instruments dropping from bus ===== -->

  <!-- Instrument #01 at x=610 -->
  <g>
    <!-- A stub down from bus -->
    <line class="wire-rs485" x1="620" y1="126" x2="620" y2="280"/>
    <!-- B stub down from bus -->
    <line class="wire-rs485" x1="640" y1="152" x2="640" y2="280"/>
    <!-- Power stub -->
    <line class="wire-pwr" x1="660" y1="72" x2="660" y2="280"/>
    <!-- GND stub -->
    <line class="wire-gnd" x1="600" y1="86" x2="600" y2="280"/>

    <rect class="instr" x="590" y="280" width="80" height="110" rx="8"/>
    <text class="title" x="630" y="300">B-2 #01</text>
    <text class="pinL" x="596" y="322">A   pin 6</text>
    <text class="pinL" x="596" y="340">B   pin 5</text>
    <text class="pinL" x="596" y="358">GND pin 3</text>
    <text class="pinL" x="596" y="376">PWR pin 4</text>
  </g>

  <!-- Instrument #02 at x=720 -->
  <g>
    <line class="wire-rs485" x1="730" y1="126" x2="730" y2="280"/>
    <line class="wire-rs485" x1="750" y1="152" x2="750" y2="280"/>
    <line class="wire-pwr" x1="770" y1="72" x2="770" y2="280"/>
    <line class="wire-gnd" x1="710" y1="86" x2="710" y2="280"/>

    <rect class="instr" x="700" y="280" width="80" height="110" rx="8"/>
    <text class="title" x="740" y="300">B-2 #02</text>
    <text class="pinL" x="706" y="322">A   pin 6</text>
    <text class="pinL" x="706" y="340">B   pin 5</text>
    <text class="pinL" x="706" y="358">GND pin 3</text>
    <text class="pinL" x="706" y="376">PWR pin 4</text>
  </g>

  <!-- Instrument #N at x=830 -->
  <g>
    <line class="wire-rs485" x1="840" y1="126" x2="840" y2="280"/>
    <line class="wire-rs485" x1="860" y1="152" x2="860" y2="280"/>
    <line class="wire-pwr" x1="880" y1="72" x2="880" y2="280"/>
    <line class="wire-gnd" x1="820" y1="86" x2="820" y2="280"/>

    <rect class="instr" x="810" y="280" width="80" height="110" rx="8"/>
    <text class="title" x="850" y="300">B-2 #N</text>
    <text class="pinL" x="816" y="322">A   pin 6</text>
    <text class="pinL" x="816" y="340">B   pin 5</text>
    <text class="pinL" x="816" y="358">GND pin 3</text>
    <text class="pinL" x="816" y="376">PWR pin 4</text>
  </g>

  <!-- Ellipsis dots between #02 and #N -->
  <text class="title" x="795" y="340">&#8230;</text>

  <!-- ===== Note ===== -->
  <text class="smallL" x="30" y="310">DE + RE tied together, driven by RTS.</text>
  <text class="smallL" x="30" y="324">ESP-IDF UART_MODE_RS485_HALF_DUPLEX</text>
  <text class="smallL" x="30" y="338">toggles direction automatically.</text>

  <!-- ===== Legend ===== -->
  <g transform="translate(30, 420)">
    <text class="titleL" x="0" y="0">Legend</text>

    <!-- Row 1 -->
    <line class="wire-uart" x1="0" y1="16" x2="24" y2="16"/>
    <text class="legend" x="30" y="20">UART (TX / RX)</text>

    <line class="wire-ctrl" x1="180" y1="16" x2="204" y2="16"/>
    <text class="legend" x="210" y="20">RTS (DE+RE control)</text>

    <line class="wire-rs485" x1="380" y1="16" x2="404" y2="16"/>
    <text class="legend" x="410" y="20">RS-485 bus (A / B)</text>

    <!-- Row 2 -->
    <line class="wire-pwr" x1="0" y1="38" x2="24" y2="38"/>
    <text class="legend" x="30" y="42">Power (3V3 logic / 12&#8211;24 V instruments)</text>

    <line class="wire-gnd" x1="380" y1="38" x2="404" y2="38"/>
    <text class="legend" x="410" y="42">Ground</text>

    <rect class="term" x="570" y="30" width="16" height="12" rx="2"/>
    <text class="legend" x="592" y="42">120 &#937; termination</text>

    <!-- Row 3: box styles -->
    <rect class="box" x="0" y="54" width="16" height="12" rx="2"/>
    <text class="legend" x="22" y="64">MCU</text>

    <rect class="xcvr" x="80" y="54" width="16" height="12" rx="2"/>
    <text class="legend" x="102" y="64">Transceiver</text>

    <rect class="instr" x="200" y="54" width="16" height="12" rx="2"/>
    <text class="legend" x="222" y="64">BASIS-2 instrument</text>
  </g>
</svg>
